if (_typeface_js && _typeface_js.loadFace) _typeface_js.loadFace({"glyphs":{"S":{"x_min":45.125,"x_max":517.625,"ha":563,"o":"m 517 929 l 517 665 q 472 676 488 676 q 419 652 441 676 q 398 597 398 629 q 421 526 398 569 l 442 490 q 498 298 498 391 q 403 70 498 164 q 174 -23 309 -23 q 45 7 108 -23 l 45 275 q 113 250 83 250 q 172 270 148 250 q 196 322 196 291 q 158 411 196 342 q 98 628 98 519 q 189 853 98 759 q 407 948 280 948 q 517 929 463 948 "},"¦":{"x_min":218,"x_max":463,"ha":681,"o":"m 218 926 l 463 926 l 463 428 l 218 428 l 218 926 m 218 213 l 463 213 l 463 -231 l 218 -231 l 218 213 "},"/":{"x_min":39.875,"x_max":408.734375,"ha":472,"o":"m 408 925 l 160 -176 l 39 -176 l 287 925 l 408 925 "},"y":{"x_min":64,"x_max":658,"ha":730,"o":"m 158 -295 l 158 -75 q 246 -97 209 -97 q 403 41 367 -97 q 276 2 338 2 q 123 72 183 2 q 64 250 64 142 l 64 675 l 313 675 l 313 312 q 362 252 313 252 q 409 318 409 252 l 409 676 l 658 676 l 658 72 q 564 -199 658 -95 q 296 -323 453 -323 q 158 -295 226 -323 "},"≈":{"x_min":9.96875,"x_max":670.59375,"ha":681,"o":"m 126 483 l 9 566 q 221 769 87 769 q 371 725 261 769 l 421 705 q 467 695 447 695 q 511 707 493 695 q 554 757 528 719 l 670 673 q 578 518 626 564 q 456 473 529 473 q 304 517 411 473 q 209 545 237 545 q 126 483 168 545 m 126 157 l 9 241 q 221 444 87 444 q 371 399 262 444 l 421 379 q 467 369 447 369 q 554 431 511 369 l 670 348 q 578 192 626 238 q 457 147 529 147 q 304 191 411 147 q 209 220 237 220 q 126 157 168 220 "},"Á":{"x_min":72,"x_max":733,"ha":805,"o":"m 419 464 l 419 220 l 342 220 l 342 0 l 72 0 l 72 588 q 163 853 72 758 q 420 948 254 948 q 656 862 580 948 q 733 597 733 776 l 733 0 l 463 0 l 463 579 q 450 654 463 633 q 405 676 437 676 q 342 579 342 676 l 342 464 l 419 464 m 659 1187 l 474 1002 l 308 1002 l 474 1187 l 659 1187 "},"g":{"x_min":36,"x_max":711,"ha":785,"o":"m 426 278 l 426 45 q 323 25 372 25 q 119 117 202 25 q 36 345 36 210 q 136 590 36 490 q 382 690 236 690 q 531 658 460 690 q 643 572 602 626 q 711 315 711 483 l 711 92 q 610 -201 711 -88 q 347 -314 509 -314 q 223 -288 298 -314 l 223 -58 q 322 -86 272 -86 q 425 -40 389 -86 q 462 88 462 4 l 462 342 q 377 449 462 449 q 315 420 342 449 q 288 356 288 392 q 314 291 288 317 q 377 266 339 266 q 426 278 402 266 "},"²":{"x_min":61,"x_max":446,"ha":507,"o":"m 446 531 l 446 370 l 94 370 l 274 715 q 282 739 282 728 q 243 775 282 775 q 218 763 229 775 q 207 737 207 752 q 221 706 207 720 l 151 580 q 61 743 61 637 q 116 881 61 824 q 250 939 172 939 q 383 881 326 939 q 440 746 440 823 q 422 663 440 699 l 355 531 l 446 531 "},"–":{"x_min":43,"x_max":639,"ha":681,"o":"m 639 501 l 639 321 l 43 321 l 43 501 l 639 501 "},"ë":{"x_min":36,"x_max":726,"ha":754,"o":"m 723 296 l 346 296 q 338 349 338 325 q 350 416 338 383 l 476 416 q 393 491 463 491 q 317 450 347 491 q 288 347 288 410 q 316 241 288 282 q 390 201 344 201 q 462 238 427 201 l 604 65 q 384 -14 505 -14 q 136 86 236 -14 q 36 337 36 187 q 137 587 36 485 q 385 690 238 690 q 628 589 530 690 q 726 343 726 489 q 723 296 726 328 m 210 975 q 301 941 264 975 q 338 857 338 907 q 299 769 338 807 q 209 732 260 732 q 122 769 159 732 q 86 857 86 807 q 122 940 86 905 q 210 975 159 975 m 542 973 q 633 939 596 973 q 670 855 670 905 q 631 767 670 805 q 541 730 592 730 q 454 767 491 730 q 418 855 418 805 q 454 938 418 903 q 542 973 491 973 "},"ƒ":{"x_min":48.515625,"x_max":725.078125,"ha":774,"o":"m 543 618 l 653 618 l 608 352 l 497 352 l 470 196 q 409 30 453 98 q 259 -111 352 -56 q 74 -167 166 -167 l 48 -167 l 94 99 l 107 99 q 185 130 154 99 q 225 220 216 162 l 303 665 q 382 857 323 778 q 528 981 441 934 q 699 1029 615 1029 l 725 1029 l 679 762 q 666 763 671 763 q 567 704 600 763 q 543 618 554 682 "},"Î":{"x_min":28.53125,"x_max":423.484375,"ha":451,"o":"m 361 925 l 361 0 l 91 0 l 91 925 l 361 925 m 222 1202 l 423 1001 l 264 1001 l 222 1041 l 184 1001 l 28 1001 l 222 1202 "},"e":{"x_min":36,"x_max":726,"ha":754,"o":"m 723 296 l 346 296 q 338 349 338 325 q 349 416 338 383 l 476 416 q 393 491 462 491 q 317 450 346 491 q 288 347 288 410 q 316 241 288 282 q 390 201 344 201 q 462 238 427 201 l 603 65 q 383 -14 504 -14 q 136 86 236 -14 q 36 337 36 187 q 137 587 36 485 q 385 690 238 690 q 628 589 530 690 q 726 343 726 489 q 723 296 726 328 "},"Ã":{"x_min":72,"x_max":733,"ha":805,"o":"m 419 464 l 419 220 l 342 220 l 342 0 l 72 0 l 72 588 q 163 853 72 758 q 420 948 254 948 q 656 862 580 948 q 733 597 733 776 l 733 0 l 463 0 l 463 579 q 450 654 463 633 q 405 676 437 676 q 342 579 342 676 l 342 464 l 419 464 m 479 1181 l 594 1181 q 563 1049 594 1097 q 483 1001 532 1001 q 395 1032 451 1001 q 359 1047 369 1047 q 333 1005 337 1047 l 209 1005 q 336 1187 225 1187 q 405 1166 367 1187 l 431 1151 q 458 1143 447 1143 q 480 1172 480 1143 q 479 1181 480 1175 "},"J":{"x_min":-9.71875,"x_max":350,"ha":414,"o":"m 350 925 l 350 301 q 271 68 350 160 q 72 -23 193 -23 q -9 -7 37 -23 l -9 258 q 26 250 10 250 q 80 337 80 250 l 80 925 l 350 925 "},"»":{"x_min":54.5,"x_max":452.59375,"ha":507,"o":"m 179 561 l 275 336 l 179 99 l 54 99 l 149 336 l 54 561 l 179 561 m 358 561 l 452 336 l 358 99 l 231 99 l 326 336 l 231 561 l 358 561 "},"∆":{"x_min":11.96875,"x_max":883.265625,"ha":896,"o":"m 11 0 l 326 924 l 565 924 l 883 0 l 11 0 m 304 203 l 586 203 l 447 678 l 304 203 "},"©":{"x_min":33,"x_max":986,"ha":1019,"o":"m 618 446 l 785 446 q 697 257 769 324 q 509 190 625 190 q 311 269 390 190 q 232 468 232 348 q 313 662 232 582 q 509 743 395 743 q 688 684 617 743 q 785 513 759 625 l 613 513 q 510 584 586 584 q 428 550 460 584 q 397 464 397 516 q 428 381 397 414 q 507 349 459 349 q 618 446 607 349 m 517 948 q 847 804 708 948 q 986 462 986 660 q 846 119 986 261 q 509 -23 706 -23 q 172 119 312 -23 q 33 462 33 261 q 173 807 33 666 q 517 948 314 948 m 515 871 q 227 752 345 871 q 109 463 109 633 q 226 174 109 294 q 509 55 343 55 q 792 174 675 55 q 910 463 910 294 q 793 750 910 629 q 515 871 676 871 "},"˘":{"x_min":172.640625,"x_max":508.265625,"ha":681,"o":"m 382 897 l 508 897 q 340 731 479 731 q 172 897 201 731 l 295 897 q 341 839 301 839 q 382 897 382 839 "},"≥":{"x_min":45,"x_max":635,"ha":681,"o":"m 45 272 l 45 503 l 370 596 l 45 690 l 45 920 l 635 700 l 635 493 l 45 272 m 45 20 l 45 237 l 635 237 l 635 20 l 45 20 "},"ò":{"x_min":32,"x_max":729,"ha":760,"o":"m 386 690 q 628 586 527 690 q 729 338 729 483 q 627 89 729 192 q 380 -14 525 -14 q 134 89 236 -14 q 32 338 32 192 q 134 588 32 487 q 386 690 236 690 m 380 439 q 312 410 340 439 q 284 338 284 380 q 312 266 284 295 q 380 236 340 236 q 448 266 420 236 q 476 338 476 295 q 448 410 476 380 q 380 439 420 439 m 343 900 l 483 743 l 343 743 l 186 900 l 343 900 "},"^":{"x_min":11.96875,"x_max":669.265625,"ha":681,"o":"m 224 473 l 11 473 l 206 932 l 474 932 l 669 473 l 456 473 l 340 764 l 224 473 "},"«":{"x_min":54.5,"x_max":452.59375,"ha":507,"o":"m 327 99 l 231 323 l 327 561 l 452 561 l 357 323 l 452 99 l 327 99 m 148 99 l 54 323 l 148 561 l 275 561 l 180 323 l 275 99 l 148 99 "},"D":{"x_min":91,"x_max":960,"ha":996,"o":"m 361 659 l 361 0 l 91 0 l 91 925 l 442 925 q 804 818 673 925 q 960 470 960 690 q 827 128 960 261 q 485 -4 694 -4 q 404 -4 460 -4 l 404 269 l 448 269 q 684 470 684 269 q 452 659 684 659 l 361 659 "},"∙":{"x_min":100,"x_max":416,"ha":516,"o":"m 257 500 q 369 451 322 500 q 416 337 416 403 q 369 224 416 270 q 257 178 322 178 q 144 223 188 178 q 100 337 100 268 q 145 452 100 405 q 257 500 191 500 "},"ÿ":{"x_min":64,"x_max":658,"ha":730,"o":"m 158 -295 l 158 -75 q 246 -97 209 -97 q 403 41 368 -97 q 275 2 338 2 q 123 72 183 2 q 64 250 64 142 l 64 675 l 313 675 l 313 312 q 362 252 313 252 q 409 318 409 252 l 409 676 l 658 676 l 658 72 q 564 -199 658 -95 q 296 -323 453 -323 q 158 -295 226 -323 m 197 976 q 288 942 251 976 q 325 858 325 908 q 286 770 325 808 q 196 733 247 733 q 109 770 146 733 q 73 858 73 808 q 109 941 73 906 q 197 976 146 976 m 530 974 q 621 940 584 974 q 658 856 658 906 q 619 768 658 806 q 529 731 580 731 q 442 768 479 731 q 406 856 406 806 q 442 939 406 904 q 530 974 479 974 "},"í":{"x_min":72,"x_max":391.453125,"ha":394,"o":"m 321 676 l 321 0 l 72 0 l 72 676 l 321 676 m 233 901 l 391 901 l 233 744 l 93 744 l 233 901 "},"ˆ":{"x_min":159.5,"x_max":521.046875,"ha":681,"o":"m 335 922 l 521 741 l 365 741 l 335 774 l 301 741 l 159 741 l 335 922 "},"w":{"x_min":72,"x_max":981,"ha":1054,"o":"m 72 665 l 321 665 l 321 301 q 329 242 321 259 q 360 226 338 226 q 402 301 402 226 l 402 665 l 651 665 l 651 301 q 659 242 651 259 q 691 226 668 226 q 732 301 732 226 l 732 665 l 981 665 l 981 249 q 905 56 981 136 q 723 -23 830 -23 q 525 71 613 -23 q 330 -23 428 -23 q 131 69 206 -23 q 72 278 72 141 l 72 665 "},"$":{"x_min":149.703125,"x_max":624.359375,"ha":774,"o":"m 272 1034 l 524 1034 l 524 949 q 624 913 585 937 l 624 672 q 546 697 578 697 q 498 679 517 697 q 480 634 480 661 q 510 554 480 603 q 587 417 568 465 q 606 313 606 368 q 524 109 606 197 l 524 -102 l 272 -102 l 272 2 q 149 42 209 13 l 149 287 q 221 274 201 274 q 278 294 256 274 q 300 348 300 314 q 261 444 300 388 l 234 483 q 178 653 178 566 q 272 881 178 789 l 272 1034 "},"∫":{"x_min":38.21875,"x_max":642.78125,"ha":681,"o":"m 38 -333 l 74 -111 q 135 -126 110 -126 q 195 -102 172 -126 q 213 -68 209 -88 q 217 2 217 -49 l 217 80 l 217 569 l 217 648 q 223 814 217 768 q 253 903 230 861 q 515 1041 329 1041 q 642 1027 567 1041 l 606 805 q 544 819 571 819 q 480 791 497 819 q 464 690 464 764 l 464 131 q 458 -117 464 -65 q 422 -217 452 -168 q 160 -346 345 -346 q 38 -333 93 -346 "},"\\":{"x_min":63.796875,"x_max":432.65625,"ha":472,"o":"m 63 925 l 185 925 l 432 -176 l 311 -176 l 63 925 "},"Ì":{"x_min":-5.046875,"x_max":360,"ha":451,"o":"m 360 925 l 360 0 l 90 0 l 90 925 l 360 925 m -5 1187 l 181 1187 l 346 1002 l 181 1002 l -5 1187 "},"µ":{"x_min":32,"x_max":650,"ha":681,"o":"m 32 -239 l 32 666 l 237 666 l 237 327 q 252 220 237 251 q 343 161 282 161 q 445 330 445 161 l 445 666 l 650 666 l 650 0 l 445 0 l 445 79 q 339 -13 411 -13 q 237 64 274 -13 l 237 -239 l 32 -239 "},"Ç":{"x_min":36,"x_max":986.90625,"ha":1023,"o":"m 633 -9 q 449 -257 606 -172 l 333 -135 q 399 -10 390 -74 q 135 157 234 29 q 36 459 36 285 q 175 807 36 666 q 518 948 314 948 q 853 806 719 948 q 984 533 946 708 l 695 533 q 511 676 647 676 q 369 614 425 676 q 313 459 313 553 q 368 309 313 368 q 507 250 423 250 q 644 302 593 250 q 704 448 695 354 l 986 448 q 633 -9 939 67 "},"’":{"x_min":100,"x_max":408,"ha":507,"o":"m 250 576 l 250 628 q 141 672 183 628 q 100 781 100 716 q 144 897 100 850 q 256 944 189 944 q 364 897 320 944 q 408 781 408 850 q 365 653 408 709 q 250 576 322 598 "},"-":{"x_min":0,"x_max":304,"ha":304,"o":"m 304 501 l 304 321 l 0 321 l 0 501 l 304 501 "},"Q":{"x_min":36,"x_max":987,"ha":1024,"o":"m 383 -85 l 383 -4 q 130 168 225 40 q 36 465 36 296 q 200 830 36 687 q 512 948 337 948 q 875 782 737 948 q 987 472 987 647 q 888 164 987 300 q 640 -4 799 41 l 640 -85 l 383 -85 m 393 391 l 632 391 l 632 287 q 711 464 711 357 q 651 613 711 550 q 512 676 592 676 q 372 613 431 676 q 313 464 313 550 q 393 287 313 354 l 393 391 "},"M":{"x_min":72,"x_max":1032,"ha":1104,"o":"m 72 0 l 72 666 q 145 869 72 790 q 337 948 219 948 q 552 817 477 948 q 650 917 598 887 q 779 948 703 948 q 967 869 902 948 q 1032 643 1032 790 l 1032 0 l 762 0 l 762 602 q 755 661 762 646 q 727 676 748 676 q 688 606 688 676 l 688 0 l 418 0 l 418 602 q 410 661 418 646 q 382 676 403 676 q 342 602 342 676 l 342 0 l 72 0 "},"C":{"x_min":36,"x_max":986.90625,"ha":1023,"o":"m 704 447 l 986 447 q 835 99 959 222 q 511 -23 711 -23 q 172 115 309 -23 q 36 459 36 254 q 175 807 36 666 q 518 948 314 948 q 853 806 719 948 q 984 533 946 708 l 695 533 q 511 676 647 676 q 369 614 425 676 q 313 459 313 553 q 368 309 313 368 q 507 250 423 250 q 644 301 593 250 q 704 447 695 352 "},"œ":{"x_min":32,"x_max":1168,"ha":1195,"o":"m 1163 297 l 777 297 q 769 349 769 330 q 781 416 769 372 l 917 416 q 829 492 904 492 q 751 450 781 492 q 722 344 722 409 q 751 240 722 281 q 825 200 780 200 q 903 237 865 200 l 1041 65 q 819 -14 940 -14 q 599 68 704 -14 q 374 -14 498 -14 q 132 87 232 -14 q 32 333 32 189 q 131 585 32 482 q 373 689 230 689 q 599 602 497 689 q 821 689 710 689 q 1092 560 989 689 q 1168 352 1168 464 q 1163 297 1168 335 m 380 438 q 311 408 339 438 q 284 332 284 379 q 310 263 284 292 q 374 235 337 235 q 444 262 417 235 q 472 332 472 289 q 447 410 472 381 q 380 438 422 438 "},"!":{"x_min":136,"x_max":452,"ha":588,"o":"m 418 925 l 418 351 l 173 351 l 173 925 l 418 925 m 293 304 q 405 255 358 304 q 452 141 452 207 q 405 28 452 74 q 293 -18 358 -18 q 180 27 224 -18 q 136 141 136 72 q 181 256 136 209 q 293 304 227 304 "},"ç":{"x_min":37,"x_max":722.328125,"ha":762,"o":"m 497 5 q 338 -190 479 -127 l 248 -97 q 284 -10 284 -49 l 284 1 q 103 129 170 37 q 37 344 37 222 q 138 588 37 486 q 382 690 240 690 q 602 608 506 690 q 720 401 697 527 l 468 401 q 386 440 436 440 q 316 411 343 440 q 289 339 289 383 q 317 265 289 295 q 390 236 346 236 q 479 316 452 236 l 722 316 q 660 122 722 203 q 497 5 599 40 "},"È":{"x_min":72,"x_max":592.1875,"ha":656,"o":"m 574 565 l 574 359 l 398 359 q 347 348 362 359 q 333 311 333 337 q 348 273 333 282 q 410 264 363 264 l 592 264 l 592 0 l 380 0 q 151 72 230 0 q 72 283 72 145 l 72 645 q 146 851 72 778 q 357 925 221 925 l 592 925 l 592 659 l 420 659 q 350 613 350 659 q 366 575 350 585 q 426 565 383 565 l 574 565 m 143 1187 l 329 1187 l 495 1002 l 329 1002 l 143 1187 "},"{":{"x_min":46,"x_max":452.609375,"ha":499,"o":"m 251 374 q 310 310 294 345 q 327 211 327 275 l 327 72 l 327 57 q 345 -2 327 9 q 433 -15 363 -15 l 452 -15 l 452 -183 q 409 -183 430 -183 l 332 -183 l 285 -183 q 153 -139 192 -183 q 115 0 115 -95 l 115 182 q 99 260 115 235 q 46 292 83 285 l 46 470 q 110 528 104 482 l 114 558 q 115 567 115 566 l 115 748 q 160 893 115 853 q 322 934 206 934 l 360 934 l 409 934 l 452 934 l 452 760 l 423 760 q 344 747 362 760 q 327 688 327 734 l 327 672 l 327 538 q 312 440 327 472 q 251 374 297 408 "},"X":{"x_min":-45.1875,"x_max":723.75,"ha":678,"o":"m 715 925 l 479 475 l 723 0 l 439 0 l 328 224 l 233 0 l -45 0 l 204 467 l -31 925 l 249 925 l 354 714 l 439 925 l 715 925 "},"ô":{"x_min":32,"x_max":729,"ha":760,"o":"m 386 690 q 628 586 527 690 q 729 338 729 483 q 627 89 729 192 q 380 -14 525 -14 q 134 89 236 -14 q 32 338 32 192 q 134 588 32 487 q 386 690 236 690 m 380 439 q 312 410 340 439 q 284 338 284 380 q 312 266 284 295 q 380 236 340 236 q 448 266 420 236 q 476 338 476 295 q 448 410 476 380 q 380 439 420 439 m 375 921 l 560 740 l 405 740 l 375 773 l 341 740 l 199 740 l 375 921 "},"¼":{"x_min":176,"x_max":1127,"ha":1180,"o":"m 330 925 l 330 370 l 176 370 l 176 925 l 330 925 m 827 925 l 460 0 l 351 0 l 720 925 l 827 925 m 1127 555 l 1127 0 l 973 0 l 973 423 l 904 286 l 938 286 l 938 165 l 725 165 l 886 555 l 1127 555 "},"#":{"x_min":80.421875,"x_max":840.0625,"ha":919,"o":"m 639 247 l 605 0 l 455 0 l 489 247 l 355 247 l 321 0 l 171 0 l 206 247 l 80 247 l 101 396 l 226 396 l 245 534 l 120 534 l 140 683 l 265 683 l 299 925 l 457 925 l 424 683 l 540 683 l 574 925 l 733 925 l 699 683 l 840 683 l 819 534 l 679 534 l 659 396 l 800 396 l 779 247 l 639 247 m 529 534 l 394 534 l 376 396 l 510 396 l 529 534 "},"Ê":{"x_min":72,"x_max":592.1875,"ha":656,"o":"m 574 565 l 574 359 l 398 359 q 347 348 362 359 q 333 311 333 337 q 348 273 333 282 q 410 264 363 264 l 592 264 l 592 0 l 380 0 q 151 72 230 0 q 72 283 72 145 l 72 645 q 146 851 72 778 q 357 925 221 925 l 592 925 l 592 659 l 420 659 q 350 613 350 659 q 366 575 350 585 q 426 565 383 565 l 574 565 m 379 1202 l 579 1001 l 420 1001 l 379 1041 l 340 1001 l 185 1001 l 379 1202 "},")":{"x_min":57.421875,"x_max":405,"ha":499,"o":"m 57 925 l 242 925 q 369 654 333 775 q 405 374 405 533 q 368 93 405 217 q 242 -176 332 -30 l 57 -176 q 191 371 191 109 q 57 925 191 639 "},"Å":{"x_min":72,"x_max":733,"ha":805,"o":"m 419 464 l 419 220 l 342 220 l 342 0 l 72 0 l 72 588 q 163 853 72 758 q 420 948 254 948 q 656 862 580 948 q 733 597 733 776 l 733 0 l 463 0 l 463 579 q 450 654 463 633 q 405 676 437 676 q 342 579 342 676 l 342 464 l 419 464 m 402 1248 q 493 1209 455 1248 q 531 1117 531 1171 q 493 1024 531 1062 q 402 986 455 986 q 311 1024 349 986 q 274 1117 274 1062 q 311 1209 274 1171 q 402 1248 349 1248 m 401 1159 q 372 1146 384 1159 q 360 1117 360 1134 q 372 1087 360 1099 q 401 1075 384 1075 q 431 1087 419 1075 q 444 1117 444 1099 q 431 1146 444 1134 q 401 1159 419 1159 "},"ø":{"x_min":14.390625,"x_max":744.609375,"ha":760,"o":"m 656 550 q 728 337 728 450 q 625 89 728 192 q 379 -14 523 -14 q 147 75 249 -14 l 52 -12 l 14 28 l 108 117 q 31 338 31 218 q 132 587 31 485 q 379 689 233 689 q 620 593 520 689 l 706 674 l 744 632 l 656 550 m 476 381 l 325 241 q 379 227 353 227 q 454 259 423 227 q 485 337 485 291 q 476 381 485 356 m 287 283 l 442 427 q 379 448 409 448 q 304 415 335 448 q 274 337 274 383 q 287 283 274 310 "},"â":{"x_min":36,"x_max":728,"ha":800,"o":"m 440 253 l 440 -8 q 384 -14 410 -14 q 135 86 235 -14 q 36 338 36 186 q 136 587 36 485 q 381 690 237 690 q 635 594 542 690 q 728 332 728 498 l 728 0 l 479 0 l 479 313 q 453 399 479 367 q 384 431 427 431 q 317 401 345 431 q 288 332 288 372 q 314 263 288 290 q 380 236 340 236 q 440 253 412 236 m 395 922 l 580 741 l 425 741 l 395 774 l 361 741 l 219 741 l 395 922 "},"}":{"x_min":45.390625,"x_max":452,"ha":499,"o":"m 246 373 q 187 436 203 401 q 171 535 171 471 l 171 675 l 171 690 q 152 750 171 738 q 64 762 134 762 l 45 762 l 45 932 q 87 932 67 932 l 165 932 l 212 932 q 383 747 383 932 l 383 564 q 398 487 383 512 q 452 455 414 462 l 452 277 q 387 219 393 265 l 384 189 q 383 180 383 181 l 383 0 q 337 -145 383 -105 q 175 -186 291 -186 l 137 -186 l 87 -186 l 45 -186 l 45 -13 l 74 -13 q 153 0 135 -13 q 171 59 171 14 l 171 75 l 171 209 q 185 307 171 275 q 246 373 200 339 "},"‰":{"x_min":86,"x_max":1737,"ha":1823,"o":"m 323 939 q 491 868 421 939 q 561 696 561 797 q 491 524 561 595 q 323 454 422 454 q 155 525 224 454 q 86 696 86 596 q 155 867 86 796 q 323 939 225 939 m 324 803 q 250 771 280 803 q 220 696 220 740 q 250 621 220 652 q 324 590 280 590 q 397 621 367 590 q 428 696 428 652 q 397 771 428 740 q 324 803 367 803 m 848 925 l 482 0 l 401 0 l 769 925 l 848 925 m 937 477 q 1105 405 1035 477 q 1175 233 1175 334 q 1105 62 1175 133 q 937 -9 1035 -9 q 768 62 838 -9 q 699 233 699 133 q 768 405 699 334 q 937 477 838 477 m 937 341 q 863 309 894 341 q 833 234 833 278 q 863 158 833 189 q 937 127 894 127 q 1011 158 980 127 q 1042 234 1042 189 q 1011 309 1042 278 q 937 341 980 341 m 1499 477 q 1667 405 1597 477 q 1737 233 1737 334 q 1667 62 1737 133 q 1499 -9 1597 -9 q 1330 62 1400 -9 q 1261 233 1261 133 q 1330 405 1261 334 q 1499 477 1400 477 m 1499 341 q 1425 309 1456 341 q 1395 234 1395 278 q 1425 158 1395 189 q 1499 127 1456 127 q 1573 158 1542 127 q 1604 234 1604 189 q 1573 309 1604 278 q 1499 341 1542 341 "},"Ä":{"x_min":72,"x_max":733,"ha":805,"o":"m 419 464 l 419 220 l 342 220 l 342 0 l 72 0 l 72 588 q 163 853 72 758 q 420 948 254 948 q 656 862 580 948 q 733 597 733 776 l 733 0 l 463 0 l 463 579 q 450 654 463 633 q 405 676 437 676 q 342 579 342 676 l 342 464 l 419 464 m 246 1226 q 331 1190 296 1226 q 366 1104 366 1154 q 331 1018 366 1054 q 246 983 296 983 q 161 1018 196 983 q 127 1104 127 1054 q 161 1190 127 1154 q 246 1226 196 1226 m 558 1226 q 643 1190 608 1226 q 678 1104 678 1154 q 643 1018 678 1054 q 558 983 608 983 q 473 1018 508 983 q 439 1104 439 1054 q 473 1190 439 1154 q 558 1226 508 1226 "},"¸":{"x_min":189.109375,"x_max":438.328125,"ha":681,"o":"m 438 7 q 278 -190 421 -127 l 189 -98 q 225 -9 225 -49 q 225 7 225 -3 l 438 7 "},"a":{"x_min":36,"x_max":728,"ha":800,"o":"m 440 253 l 440 -8 q 384 -14 410 -14 q 135 86 235 -14 q 36 338 36 186 q 136 587 36 485 q 381 690 237 690 q 635 594 542 690 q 728 332 728 498 l 728 0 l 479 0 l 479 313 q 453 399 479 367 q 384 431 427 431 q 317 401 345 431 q 288 332 288 372 q 314 263 288 290 q 380 236 340 236 q 440 253 412 236 "},"—":{"x_min":0,"x_max":911,"ha":911,"o":"m 911 501 l 911 321 l 0 321 l 0 501 l 911 501 "},"=":{"x_min":169,"x_max":848,"ha":1018,"o":"m 169 675 l 848 675 l 848 504 l 169 504 l 169 675 m 169 441 l 848 441 l 848 270 l 169 270 l 169 441 "},"N":{"x_min":72,"x_max":728,"ha":801,"o":"m 72 0 l 72 600 q 164 853 72 758 q 411 948 257 948 q 646 855 565 948 q 728 590 728 763 l 728 0 l 458 0 l 458 591 q 399 676 458 676 q 342 591 342 676 l 342 0 l 72 0 "},"˚":{"x_min":212,"x_max":468,"ha":681,"o":"m 340 997 q 430 958 392 997 q 468 865 468 920 q 430 773 468 811 q 340 735 392 735 q 249 773 287 735 q 212 865 212 811 q 249 958 212 920 q 340 997 287 997 m 339 908 q 310 895 322 908 q 298 866 298 883 q 310 836 298 848 q 339 824 322 824 q 368 836 356 824 q 380 866 380 848 q 368 895 380 883 q 339 908 356 908 "},"ú":{"x_min":72,"x_max":663,"ha":735,"o":"m 72 666 l 321 666 l 321 284 q 367 227 321 227 q 414 284 414 227 l 414 666 l 663 666 l 663 289 q 577 67 663 157 q 367 -23 491 -23 q 139 82 225 -23 q 72 309 72 164 l 72 666 m 404 900 l 561 900 l 404 744 l 264 744 l 404 900 "},"2":{"x_min":66,"x_max":707,"ha":773,"o":"m 707 268 l 707 0 l 121 0 l 412 557 l 422 576 q 434 620 434 598 q 371 675 434 675 q 328 656 346 675 q 310 612 310 637 q 333 561 310 584 l 217 349 q 105 467 144 395 q 66 624 66 538 q 158 852 66 757 q 381 948 250 948 q 605 853 513 948 q 697 624 697 759 q 663 481 697 547 l 555 268 l 707 268 "},"ü":{"x_min":72,"x_max":663,"ha":735,"o":"m 72 666 l 321 666 l 321 284 q 367 227 321 227 q 414 284 414 227 l 414 666 l 663 666 l 663 289 q 577 67 663 157 q 367 -23 491 -23 q 139 82 225 -23 q 72 309 72 164 l 72 666 m 200 975 q 291 941 254 975 q 328 857 328 907 q 289 769 328 807 q 199 732 250 732 q 112 769 149 732 q 76 857 76 807 q 112 940 76 905 q 200 975 149 975 m 532 974 q 623 940 586 974 q 660 856 660 906 q 621 768 660 806 q 531 731 582 731 q 444 768 481 731 q 408 856 408 806 q 444 939 408 904 q 532 974 481 974 "},"Z":{"x_min":0,"x_max":704.3125,"ha":704,"o":"m 704 925 l 422 266 l 701 266 l 701 0 l 15 0 l 296 659 l 0 659 l 0 925 l 704 925 "},"u":{"x_min":72,"x_max":663,"ha":735,"o":"m 72 666 l 321 666 l 321 284 q 367 227 321 227 q 414 284 414 227 l 414 666 l 663 666 l 663 289 q 577 67 663 157 q 367 -23 491 -23 q 139 82 225 -23 q 72 309 72 164 l 72 666 "},"":{"x_min":72,"x_max":688,"ha":760,"o":"m 404 526 l 404 260 l 321 260 l 321 0 l 72 0 l 72 574 q 133 788 72 704 q 252 894 179 852 q 390 936 325 936 l 404 936 l 404 670 q 339 632 357 659 q 321 549 321 605 l 321 526 l 404 526 m 688 925 l 688 0 l 439 0 l 439 925 l 688 925 "},"˜":{"x_min":173,"x_max":507,"ha":680,"o":"m 404 895 l 507 895 q 475 782 507 826 q 395 739 444 739 q 342 754 368 739 l 312 773 q 298 779 306 778 q 272 743 278 779 l 173 743 q 201 857 173 816 q 283 898 230 898 q 334 882 310 898 l 361 866 q 377 860 368 860 q 404 895 400 860 "},"Ó":{"x_min":37,"x_max":990,"ha":1026,"o":"m 521 948 q 852 805 714 948 q 990 462 990 662 q 851 118 990 260 q 513 -23 712 -23 q 176 119 316 -23 q 37 462 37 261 q 177 807 37 666 q 521 948 318 948 m 513 676 q 371 613 430 676 q 313 463 313 551 q 371 312 313 374 q 513 250 430 250 q 655 312 597 250 q 714 463 714 374 q 655 613 714 551 q 513 676 597 676 m 771 1186 l 584 1002 l 418 1002 l 584 1186 l 771 1186 "},"k":{"x_min":72,"x_max":760.96875,"ha":734,"o":"m 321 925 l 321 0 l 72 0 l 72 925 l 321 925 m 701 676 l 580 429 l 760 0 l 485 0 l 330 441 l 443 676 l 701 676 "},"ˇ":{"x_min":159.5,"x_max":521.046875,"ha":681,"o":"m 335 740 l 159 922 l 301 922 l 335 888 l 365 922 l 521 922 l 335 740 "},"Ù":{"x_min":72,"x_max":728,"ha":801,"o":"m 728 925 l 728 325 q 635 71 728 166 q 388 -23 542 -23 q 153 69 234 -23 q 72 334 72 161 l 72 925 l 342 925 l 342 334 q 401 250 342 250 q 458 334 458 250 l 458 925 l 728 925 m 170 1187 l 356 1187 l 521 1003 l 356 1003 l 170 1187 "},"Ÿ":{"x_min":-54.625,"x_max":729.984375,"ha":684,"o":"m 729 925 l 474 513 l 474 0 l 204 0 l 204 513 l -54 925 l 219 925 l 336 734 l 461 925 l 729 925 m 186 1226 q 271 1190 236 1226 q 306 1104 306 1154 q 271 1018 306 1054 q 186 983 236 983 q 101 1018 136 983 q 67 1104 67 1054 q 101 1190 67 1154 q 186 1226 136 1226 m 497 1226 q 582 1190 547 1226 q 617 1104 617 1154 q 582 1018 617 1054 q 497 983 547 983 q 412 1018 447 983 q 378 1104 378 1054 q 412 1190 378 1154 q 497 1226 447 1226 "},"€":{"x_min":28.984375,"x_max":734.921875,"ha":773,"o":"m 734 137 l 725 123 q 601 8 670 41 q 452 -24 532 -24 q 217 76 303 -24 q 131 352 131 176 l 28 352 l 42 433 l 130 433 l 130 501 l 28 501 l 42 583 l 133 583 q 220 852 133 757 q 452 948 307 948 q 604 914 542 948 q 730 791 666 880 l 523 638 l 516 653 q 493 690 505 678 q 453 703 481 703 q 389 618 389 703 l 389 583 l 568 583 l 556 501 l 389 501 l 389 434 l 568 434 l 556 352 l 388 352 l 388 306 q 453 222 388 222 q 494 235 478 222 q 525 292 510 248 l 734 137 "},"¢":{"x_min":170,"x_max":603.796875,"ha":774,"o":"m 603 733 l 603 541 q 549 553 573 553 q 473 519 505 553 q 441 438 441 485 q 473 356 441 390 q 552 323 506 323 q 603 333 575 323 l 603 137 q 538 118 561 122 l 538 0 l 310 0 l 310 167 q 170 433 170 268 q 310 704 170 598 l 310 922 l 538 922 l 538 753 q 603 733 575 746 "},"Ω":{"x_min":32,"x_max":875,"ha":907,"o":"m 37 0 l 37 203 l 205 203 q 32 508 32 315 q 153 821 32 695 q 453 948 275 948 q 753 821 631 948 q 875 508 875 694 q 701 203 875 315 l 870 203 l 870 0 l 498 0 l 498 186 q 641 472 641 260 q 587 665 641 589 q 453 742 534 742 q 318 665 371 742 q 265 473 265 589 q 408 186 265 261 l 408 0 l 37 0 "},"ß":{"x_min":65,"x_max":729,"ha":773,"o":"m 351 380 l 351 554 l 366 554 q 429 573 406 554 q 453 625 453 592 q 433 674 453 655 q 382 694 413 694 q 314 615 314 694 l 314 0 l 65 0 l 65 654 q 149 858 65 774 q 352 943 233 943 q 560 861 477 943 q 643 654 643 779 q 594 496 643 575 q 698 391 668 443 q 729 265 729 339 q 644 62 729 148 q 446 -23 560 -23 q 351 -4 397 -23 l 351 212 q 400 202 379 202 q 460 226 436 202 q 484 290 484 251 q 452 357 484 335 q 351 380 421 380 "},"é":{"x_min":36,"x_max":726,"ha":754,"o":"m 723 296 l 346 296 q 338 349 338 325 q 349 416 338 383 l 476 416 q 393 491 462 491 q 317 450 346 491 q 288 347 288 410 q 316 241 288 282 q 390 201 344 201 q 462 238 427 201 l 603 65 q 383 -14 504 -14 q 136 86 236 -14 q 36 337 36 187 q 137 587 36 485 q 385 690 238 690 q 628 589 530 690 q 726 343 726 489 q 723 296 726 328 m 449 900 l 607 900 l 449 743 l 309 743 l 449 900 "},"s":{"x_min":9,"x_max":488,"ha":497,"o":"m 488 667 l 488 400 q 415 379 435 400 q 390 300 396 359 q 241 23 373 104 q 43 -18 171 -18 l 9 -18 l 9 250 l 20 250 q 108 275 80 250 q 136 365 136 301 q 149 511 136 469 q 206 594 163 553 q 411 667 280 667 l 488 667 "},"B":{"x_min":91,"x_max":759,"ha":777,"o":"m 91 925 l 420 925 q 714 690 714 925 q 613 496 714 573 q 759 266 759 431 q 673 64 759 139 q 583 14 631 28 q 454 0 535 0 l 403 0 l 403 238 l 449 238 q 506 248 489 238 q 523 285 523 258 q 455 330 523 330 l 403 330 l 403 577 q 478 629 478 577 q 410 677 478 677 l 361 677 l 361 0 l 91 0 l 91 925 "},"…":{"x_min":100,"x_max":1446,"ha":1546,"o":"m 257 304 q 369 255 322 304 q 416 141 416 207 q 369 28 416 74 q 257 -18 322 -18 q 144 27 188 -18 q 100 141 100 72 q 145 256 100 209 q 257 304 191 304 m 772 304 q 884 255 837 304 q 931 141 931 207 q 884 28 931 74 q 772 -18 837 -18 q 659 27 703 -18 q 615 141 615 72 q 660 256 615 209 q 772 304 706 304 m 1287 304 q 1399 255 1352 304 q 1446 141 1446 207 q 1399 28 1446 75 q 1287 -18 1352 -18 q 1174 27 1218 -18 q 1130 141 1130 72 q 1175 256 1130 209 q 1287 304 1221 304 "},"?":{"x_min":64,"x_max":659,"ha":723,"o":"m 480 339 l 233 339 l 233 382 q 251 507 233 467 q 319 570 269 548 l 364 590 q 416 655 416 613 q 399 697 416 680 q 358 714 382 714 q 293 622 293 714 l 64 622 q 119 823 64 745 q 226 915 161 881 q 363 949 292 949 q 573 864 488 949 q 659 655 659 780 q 536 438 659 501 q 488 403 496 418 q 480 339 480 388 m 360 304 q 472 255 425 304 q 519 141 519 207 q 472 28 519 74 q 360 -18 425 -18 q 247 27 291 -18 q 203 141 203 72 q 248 256 203 209 q 360 304 294 304 "},"H":{"x_min":91,"x_max":752,"ha":842,"o":"m 436 594 l 436 350 l 361 350 l 361 0 l 91 0 l 91 925 l 361 925 l 361 594 l 436 594 m 752 925 l 752 0 l 482 0 l 482 925 l 752 925 "},"î":{"x_min":16.171875,"x_max":378.15625,"ha":395,"o":"m 192 922 l 378 741 l 222 741 l 192 774 l 158 741 l 16 741 l 192 922 m 321 676 l 321 0 l 72 0 l 72 676 l 321 676 "},"c":{"x_min":37,"x_max":721,"ha":762,"o":"m 479 316 l 721 316 q 623 78 721 171 q 387 -14 526 -14 q 138 89 239 -14 q 37 343 37 193 q 138 588 37 486 q 382 690 240 690 q 602 608 506 690 q 720 401 697 527 l 468 401 q 386 440 435 440 q 316 411 343 440 q 289 339 289 383 q 317 265 289 295 q 390 236 346 236 q 479 316 453 236 "},"¶":{"x_min":52,"x_max":785,"ha":1019,"o":"m 452 -175 l 452 578 q 365 700 452 700 q 304 675 330 700 q 279 614 279 649 q 303 552 279 578 q 363 526 328 526 q 418 547 390 526 l 418 297 q 358 293 378 293 q 142 386 233 293 q 52 609 52 480 q 143 833 52 742 q 368 925 235 925 l 468 925 l 785 925 l 785 -175 l 658 -175 l 658 712 l 584 712 l 584 -175 l 452 -175 "},"≠":{"x_min":45,"x_max":635,"ha":680,"o":"m 343 684 l 441 867 l 590 782 l 534 684 l 635 684 l 635 477 l 452 477 l 400 383 l 634 383 l 634 176 l 326 176 l 244 24 l 95 108 l 134 176 l 45 176 l 45 383 l 208 383 l 261 477 l 45 477 l 45 684 l 343 684 "},"•":{"x_min":266,"x_max":644,"ha":907,"o":"m 455 663 q 588 606 533 663 q 644 470 644 550 q 588 334 644 390 q 455 278 533 278 q 321 334 376 278 q 266 470 266 390 q 321 606 266 550 q 455 663 376 663 "},"¥":{"x_min":22.046875,"x_max":752.28125,"ha":774,"o":"m 752 925 l 556 578 l 632 578 l 632 449 l 523 449 l 523 393 l 632 393 l 632 264 l 523 264 l 523 0 l 253 0 l 253 264 l 145 264 l 145 393 l 253 393 l 253 449 l 145 449 l 145 578 l 217 578 l 22 925 l 295 925 l 385 734 l 483 925 l 752 925 "},"(":{"x_min":94,"x_max":441.59375,"ha":499,"o":"m 441 -176 l 255 -176 q 129 94 165 -26 q 94 374 94 215 q 130 655 94 531 q 255 925 166 778 l 440 925 q 308 377 308 639 q 441 -176 308 110 "},"U":{"x_min":72,"x_max":728,"ha":801,"o":"m 728 925 l 728 325 q 635 71 728 166 q 388 -23 542 -23 q 153 69 234 -23 q 72 334 72 161 l 72 925 l 342 925 l 342 334 q 401 250 342 250 q 458 334 458 250 l 458 925 l 728 925 "},"◊":{"x_min":100.359375,"x_max":807.5,"ha":907,"o":"m 453 961 l 807 462 l 453 -35 l 100 462 l 453 961 m 453 838 l 185 462 l 453 86 l 721 462 l 453 838 "},"Ñ":{"x_min":72,"x_max":728,"ha":801,"o":"m 72 0 l 72 600 q 164 853 72 758 q 411 948 257 948 q 646 855 565 948 q 728 590 728 763 l 728 0 l 458 0 l 458 591 q 399 676 458 676 q 342 591 342 676 l 342 0 l 72 0 m 477 1182 l 592 1182 q 560 1050 592 1098 q 479 1002 529 1002 q 392 1033 448 1002 q 356 1048 367 1048 q 330 1006 334 1048 l 206 1006 q 333 1188 222 1188 q 401 1167 363 1188 l 428 1152 q 454 1144 443 1144 q 477 1173 477 1144 q 477 1182 477 1178 "},"F":{"x_min":72,"x_max":691.59375,"ha":655,"o":"m 431 489 l 431 241 l 342 241 l 342 0 l 72 0 l 72 573 q 170 841 72 735 q 417 948 268 948 q 691 803 581 948 l 470 639 q 404 692 451 692 q 342 603 342 692 l 342 489 l 431 489 "},"­":{"x_min":0,"x_max":304,"ha":304,"o":"m 304 501 l 304 321 l 0 321 l 0 501 l 304 501 "},":":{"x_min":100,"x_max":416,"ha":516,"o":"m 257 304 q 369 255 322 304 q 416 141 416 207 q 369 28 416 74 q 257 -18 322 -18 q 144 27 188 -18 q 100 141 100 72 q 145 256 100 209 q 257 304 191 304 m 257 690 q 369 641 322 690 q 416 527 416 593 q 369 414 416 460 q 257 368 322 368 q 144 413 188 368 q 100 527 100 458 q 145 642 100 595 q 257 690 191 690 "},"Û":{"x_min":72,"x_max":728,"ha":801,"o":"m 728 925 l 728 325 q 635 71 728 166 q 388 -23 542 -23 q 153 69 234 -23 q 72 334 72 161 l 72 925 l 342 925 l 342 334 q 401 250 342 250 q 458 334 458 250 l 458 925 l 728 925 m 397 1202 l 596 1001 l 438 1001 l 397 1041 l 358 1001 l 203 1001 l 397 1202 "},"*":{"x_min":125.109375,"x_max":554.390625,"ha":680,"o":"m 396 806 q 436 811 422 811 q 554 750 497 811 l 435 679 q 464 588 464 635 q 438 500 464 549 l 335 592 q 222 539 289 539 q 176 543 206 539 l 233 677 q 125 820 141 708 l 268 807 q 365 947 268 901 l 396 806 "},"†":{"x_min":121,"x_max":560,"ha":681,"o":"m 451 -176 l 230 -176 l 230 412 l 121 412 l 121 666 l 230 666 l 230 925 l 451 925 l 451 666 l 560 666 l 560 412 l 451 412 l 451 -176 "},"∕":{"x_min":-154.1875,"x_max":320.34375,"ha":166,"o":"m 320 925 l -45 0 l -154 0 l 214 925 l 320 925 "},"°":{"x_min":34,"x_max":501,"ha":535,"o":"m 266 948 q 433 878 365 948 q 501 706 501 808 q 432 539 501 608 q 264 471 363 471 q 102 541 170 471 q 34 708 34 611 q 102 877 34 807 q 266 948 170 948 m 267 840 q 180 801 217 840 q 144 709 144 762 q 180 618 144 657 q 264 580 216 580 q 353 617 316 580 q 391 708 391 655 q 354 800 391 761 q 267 840 317 840 "},"V":{"x_min":-45.1875,"x_max":743.03125,"ha":711,"o":"m 743 925 l 347 -53 l -45 925 l 267 925 l 350 636 l 441 925 l 743 925 "},"å":{"x_min":36,"x_max":728,"ha":800,"o":"m 440 253 l 440 -8 q 384 -14 410 -14 q 135 86 235 -14 q 36 338 36 186 q 136 587 36 485 q 381 690 237 690 q 635 594 542 690 q 728 332 728 498 l 728 0 l 479 0 l 479 313 q 453 399 479 367 q 384 431 427 431 q 317 401 345 431 q 288 332 288 372 q 314 263 288 290 q 380 236 340 236 q 440 253 412 236 m 400 997 q 490 958 452 997 q 528 865 528 920 q 490 773 528 811 q 400 735 452 735 q 309 773 347 735 q 272 865 272 811 q 309 958 272 920 q 400 997 347 997 m 399 908 q 370 895 382 908 q 358 866 358 883 q 370 836 358 848 q 399 824 382 824 q 428 836 416 824 q 440 866 440 848 q 428 895 440 883 q 399 908 416 908 "}," ":{"x_min":0,"x_max":0,"ha":340},"0":{"x_min":63,"x_max":710,"ha":774,"o":"m 63 361 l 63 564 q 149 845 63 742 q 386 948 236 948 q 622 845 535 948 q 710 564 710 742 l 710 361 q 622 80 710 183 q 386 -23 535 -23 q 149 80 236 -23 q 63 361 63 183 m 322 618 l 322 306 q 386 222 322 222 q 451 306 451 222 l 451 618 q 386 703 451 703 q 322 618 322 703 "},"”":{"x_min":100,"x_max":771,"ha":870,"o":"m 250 576 l 250 628 q 141 672 183 628 q 100 781 100 716 q 144 897 100 850 q 256 944 189 944 q 364 897 320 944 q 408 781 408 850 q 365 653 408 709 q 250 576 322 598 m 613 576 l 613 628 q 504 672 546 628 q 463 781 463 716 q 507 897 463 850 q 619 944 552 944 q 727 897 683 944 q 771 781 771 850 q 728 653 771 709 q 613 576 685 598 "},"¾":{"x_min":107.390625,"x_max":1127,"ha":1180,"o":"m 109 925 l 398 925 l 308 712 q 400 545 400 649 q 341 411 400 466 q 200 356 283 356 q 107 373 153 356 l 107 531 q 167 509 139 509 q 213 529 194 509 q 233 579 233 550 q 129 655 233 655 l 169 765 l 109 765 l 109 925 m 828 925 l 461 0 l 352 0 l 721 925 l 828 925 m 1127 555 l 1127 0 l 973 0 l 973 423 l 905 286 l 939 286 l 939 165 l 726 165 l 887 555 l 1127 555 "},"@":{"x_min":52,"x_max":967,"ha":1019,"o":"m 793 130 l 819 25 q 549 -18 694 -18 q 167 133 301 -18 q 52 454 52 265 q 188 802 52 662 q 528 943 325 943 q 842 827 718 943 q 967 535 967 711 q 887 313 967 401 q 689 225 808 225 q 587 249 625 225 q 549 313 549 273 q 556 362 549 332 l 582 460 q 585 487 585 472 q 532 542 585 542 q 475 516 499 542 q 451 458 451 491 q 491 414 451 414 q 528 421 510 414 l 468 254 q 433 250 447 250 q 318 294 361 250 q 276 412 276 338 q 362 623 276 533 q 566 713 449 713 q 702 668 651 713 q 754 552 754 624 q 745 486 754 522 l 725 404 l 721 390 q 716 356 716 370 q 745 324 716 324 q 827 389 790 324 q 865 535 865 455 q 772 754 865 670 q 532 839 680 839 q 269 729 373 839 q 165 452 165 619 q 246 208 165 307 q 551 86 345 86 q 793 130 669 86 "},"ö":{"x_min":32,"x_max":729,"ha":760,"o":"m 386 690 q 628 586 527 690 q 729 338 729 483 q 627 89 729 192 q 380 -14 525 -14 q 134 89 236 -14 q 32 338 32 192 q 134 588 32 487 q 386 690 236 690 m 380 439 q 312 410 340 439 q 284 338 284 380 q 312 266 284 295 q 380 236 340 236 q 448 266 420 236 q 476 338 476 295 q 448 410 476 380 q 380 439 420 439 m 212 975 q 303 941 266 975 q 340 857 340 907 q 301 769 340 807 q 211 732 262 732 q 124 769 161 732 q 88 857 88 807 q 124 940 88 905 q 212 975 161 975 m 545 973 q 636 939 599 973 q 673 855 673 905 q 634 767 673 805 q 544 730 595 730 q 457 767 494 730 q 421 855 421 805 q 457 938 421 903 q 545 973 494 973 "},"i":{"x_min":72,"x_max":321,"ha":394,"o":"m 321 676 l 321 0 l 72 0 l 72 676 l 321 676 m 196 978 q 284 941 247 978 q 321 855 321 905 q 286 768 321 802 q 196 735 251 735 q 106 768 141 735 q 72 855 72 802 q 108 941 72 905 q 196 978 145 978 "},"≤":{"x_min":45,"x_max":635,"ha":681,"o":"m 635 920 l 635 690 l 309 596 l 635 503 l 635 272 l 45 493 l 45 700 l 635 920 m 635 237 l 635 20 l 45 20 l 45 237 l 635 237 "},"Õ":{"x_min":37,"x_max":990,"ha":1026,"o":"m 521 948 q 852 805 714 948 q 990 462 990 662 q 851 118 990 260 q 513 -23 712 -23 q 176 119 316 -23 q 37 462 37 261 q 177 807 37 666 q 521 948 318 948 m 513 676 q 371 613 430 676 q 313 463 313 551 q 371 312 313 374 q 513 250 430 250 q 655 312 597 250 q 714 463 714 374 q 655 613 714 551 q 513 676 597 676 m 590 1181 l 705 1181 q 674 1049 705 1097 q 593 1001 643 1001 q 505 1033 562 1001 q 469 1048 480 1048 q 443 1006 447 1048 l 319 1006 q 446 1188 335 1188 q 514 1166 476 1188 l 541 1151 q 568 1143 556 1143 q 590 1172 590 1143 q 590 1181 590 1178 "},"þ":{"x_min":58,"x_max":751,"ha":788,"o":"m 58 925 l 307 925 l 307 675 q 399 689 357 689 q 649 587 547 689 q 751 338 751 485 q 649 90 751 194 q 410 -14 548 -14 q 344 -9 388 -14 l 344 270 q 405 245 374 245 q 471 274 443 245 q 499 343 499 303 q 470 410 499 382 q 402 439 442 439 q 307 304 307 439 l 307 -250 l 58 -250 l 58 925 "},"]":{"x_min":60.515625,"x_max":438,"ha":499,"o":"m 226 -9 l 226 758 l 60 758 l 60 925 l 438 925 l 438 -176 l 60 -176 l 60 -9 l 226 -9 "},"m":{"x_min":72,"x_max":981,"ha":1054,"o":"m 981 0 l 732 0 l 732 364 q 723 422 732 406 q 692 439 714 439 q 651 363 651 439 l 651 0 l 402 0 l 402 364 q 393 422 402 406 q 361 439 384 439 q 321 363 321 439 l 321 0 l 72 0 l 72 415 q 147 609 72 529 q 329 689 222 689 q 527 594 439 689 q 722 689 625 689 q 921 596 846 689 q 981 387 981 525 l 981 0 "},"8":{"x_min":64,"x_max":708,"ha":773,"o":"m 608 530 q 686 421 665 471 q 708 299 708 371 q 615 69 708 161 q 386 -23 523 -23 q 156 69 248 -23 q 64 299 64 161 q 86 421 64 368 q 163 530 108 473 q 114 678 114 597 q 190 871 114 795 q 385 948 266 948 q 581 872 504 948 q 658 677 658 796 q 608 530 658 598 m 383 749 q 331 726 353 749 q 310 674 310 704 q 331 618 310 640 q 385 596 352 596 q 437 618 415 596 q 459 672 459 641 q 437 727 459 705 q 383 749 415 749 m 385 405 q 307 372 339 405 q 275 295 275 340 q 306 212 275 245 q 385 180 337 180 q 463 212 432 180 q 495 295 495 245 q 462 372 495 339 q 385 405 429 405 "},"R":{"x_min":91,"x_max":814.234375,"ha":814,"o":"m 361 676 l 361 0 l 91 0 l 91 925 l 437 925 q 682 845 595 925 q 779 617 779 755 q 658 381 779 477 l 814 0 l 531 0 l 400 297 l 400 536 l 421 536 q 507 610 507 536 q 408 676 507 676 l 361 676 "},"á":{"x_min":36,"x_max":728,"ha":800,"o":"m 440 253 l 440 -8 q 384 -14 410 -14 q 135 86 235 -14 q 36 338 36 186 q 136 587 36 485 q 381 690 237 690 q 635 594 542 690 q 728 332 728 498 l 728 0 l 479 0 l 479 313 q 453 399 479 367 q 384 431 427 431 q 317 401 345 431 q 288 332 288 372 q 314 263 288 290 q 380 236 340 236 q 440 253 412 236 m 436 901 l 594 901 l 436 744 l 296 744 l 436 901 "},"×":{"x_min":175.453125,"x_max":843.390625,"ha":1019,"o":"m 373 471 l 175 673 l 311 812 l 509 611 l 707 812 l 843 673 l 646 471 l 843 270 l 707 131 l 509 332 l 311 131 l 175 270 l 373 471 "},"o":{"x_min":32,"x_max":729,"ha":760,"o":"m 386 690 q 628 586 527 690 q 729 338 729 483 q 627 89 729 192 q 380 -14 525 -14 q 134 89 236 -14 q 32 338 32 192 q 134 588 32 487 q 386 690 236 690 m 380 439 q 312 410 340 439 q 284 338 284 380 q 312 266 284 295 q 380 236 340 236 q 448 266 420 236 q 476 338 476 295 q 448 410 476 380 q 380 439 420 439 "},"5":{"x_min":113.84375,"x_max":659,"ha":773,"o":"m 633 925 l 633 659 l 409 659 l 397 616 q 578 513 519 581 q 659 292 659 421 q 560 66 659 156 q 313 -23 462 -23 q 115 30 213 -23 l 115 258 q 252 220 193 220 q 349 248 313 220 q 385 325 385 276 q 330 417 385 380 q 194 455 275 455 q 113 444 164 455 l 211 925 l 633 925 "},"õ":{"x_min":32,"x_max":729,"ha":760,"o":"m 386 690 q 628 586 527 690 q 729 338 729 483 q 627 89 729 192 q 380 -14 525 -14 q 134 89 236 -14 q 32 338 32 192 q 134 588 32 487 q 386 690 236 690 m 380 439 q 312 410 340 439 q 284 338 284 380 q 312 266 284 295 q 380 236 340 236 q 448 266 420 236 q 476 338 476 295 q 448 410 476 380 q 380 439 420 439 m 444 895 l 547 895 q 515 782 547 826 q 436 739 484 739 q 382 755 408 739 l 352 774 q 339 780 346 779 q 312 744 318 780 l 213 744 q 241 858 213 817 q 323 899 270 899 q 374 882 350 899 l 401 866 q 418 860 408 860 q 444 895 440 860 "},"7":{"x_min":81,"x_max":693.109375,"ha":774,"o":"m 693 926 l 429 0 l 153 0 l 358 660 l 81 660 l 81 926 l 693 926 "},"K":{"x_min":91,"x_max":878.734375,"ha":878,"o":"m 878 925 l 639 505 l 877 0 l 574 0 l 368 510 l 601 925 l 878 925 m 361 925 l 361 0 l 91 0 l 91 925 l 361 925 "},",":{"x_min":100,"x_max":408,"ha":507,"o":"m 250 -70 l 250 -19 q 141 25 183 -19 q 100 135 100 69 q 144 251 100 204 q 256 298 189 298 q 364 251 320 298 q 408 135 408 204 q 365 7 408 63 q 250 -70 322 -48 "},"d":{"x_min":36,"x_max":729,"ha":787,"o":"m 480 925 l 729 925 l 729 361 q 649 108 729 206 q 532 19 603 52 q 387 -14 461 -14 q 137 87 239 -14 q 36 337 36 189 q 137 584 36 480 q 376 689 238 689 q 442 684 398 689 l 442 405 q 381 430 412 430 q 315 401 343 430 q 288 331 288 372 q 316 264 288 292 q 384 236 344 236 q 480 371 480 236 l 480 925 "},"¨":{"x_min":49,"x_max":633,"ha":681,"o":"m 173 976 q 264 942 227 976 q 301 858 301 908 q 262 770 301 808 q 172 733 223 733 q 85 770 122 733 q 49 858 49 808 q 85 941 49 906 q 173 976 122 976 m 505 974 q 596 940 559 974 q 633 856 633 906 q 594 768 633 806 q 504 731 555 731 q 417 768 454 731 q 381 856 381 806 q 417 939 381 904 q 505 974 454 974 "},"Ô":{"x_min":37,"x_max":990,"ha":1026,"o":"m 521 948 q 852 805 714 948 q 990 462 990 662 q 851 118 990 260 q 513 -23 712 -23 q 176 119 316 -23 q 37 462 37 261 q 177 807 37 666 q 521 948 318 948 m 513 676 q 371 613 430 676 q 313 463 313 551 q 371 312 313 374 q 513 250 430 250 q 655 312 597 250 q 714 463 714 374 q 655 613 714 551 q 513 676 597 676 m 510 1202 l 711 1001 l 552 1001 l 510 1041 l 472 1001 l 315 1001 l 510 1202 "},"E":{"x_min":72,"x_max":592.1875,"ha":656,"o":"m 574 565 l 574 359 l 398 359 q 347 348 362 359 q 333 311 333 337 q 348 273 333 282 q 410 264 363 264 l 592 264 l 592 0 l 380 0 q 151 72 230 0 q 72 283 72 145 l 72 645 q 146 851 72 778 q 357 925 221 925 l 592 925 l 592 659 l 420 659 q 350 613 350 659 q 366 575 350 585 q 426 565 383 565 l 574 565 "},"Y":{"x_min":-54.53125,"x_max":730.546875,"ha":685,"o":"m 730 925 l 474 513 l 474 0 l 204 0 l 204 513 l -54 925 l 219 925 l 336 734 l 462 925 l 730 925 "},"\"":{"x_min":89.71875,"x_max":591.5,"ha":681,"o":"m 265 554 l 140 554 l 89 925 l 317 925 l 265 554 m 539 554 l 414 554 l 363 925 l 591 925 l 539 554 "},"‹":{"x_min":54.5,"x_max":275.8125,"ha":330,"o":"m 148 99 l 54 323 l 148 561 l 275 561 l 180 323 l 275 99 l 148 99 "},"˙":{"x_min":216,"x_max":465,"ha":681,"o":"m 340 976 q 428 939 391 976 q 465 854 465 903 q 430 767 465 801 q 340 734 395 734 q 250 767 285 734 q 216 854 216 801 q 252 939 216 903 q 340 976 289 976 "},"ê":{"x_min":36,"x_max":726,"ha":754,"o":"m 723 296 l 346 296 q 338 349 338 325 q 349 416 338 383 l 476 416 q 393 491 462 491 q 317 450 346 491 q 288 347 288 410 q 316 241 288 282 q 390 201 344 201 q 462 238 427 201 l 603 65 q 383 -14 504 -14 q 136 86 236 -14 q 36 337 36 187 q 137 587 36 485 q 385 690 238 690 q 628 589 530 690 q 726 343 726 489 q 723 296 726 328 m 371 921 l 557 740 l 401 740 l 371 773 l 338 740 l 196 740 l 371 921 "},"Ï":{"x_min":-36,"x_max":487,"ha":451,"o":"m 361 925 l 361 0 l 91 0 l 91 925 l 361 925 m 77 1221 q 157 1187 124 1221 q 191 1105 191 1153 q 157 1023 191 1057 q 77 990 124 990 q -2 1023 30 990 q -36 1105 -36 1057 q -2 1187 -36 1153 q 77 1221 30 1221 m 373 1221 q 453 1187 420 1221 q 487 1105 487 1153 q 453 1023 487 1057 q 373 990 420 990 q 293 1023 326 990 q 260 1105 260 1057 q 293 1187 260 1153 q 373 1221 326 1221 "},"„":{"x_min":100,"x_max":771,"ha":870,"o":"m 250 -70 l 250 -19 q 141 25 183 -19 q 100 135 100 69 q 144 251 100 204 q 256 298 189 298 q 364 251 320 298 q 408 135 408 204 q 365 7 408 63 q 250 -70 322 -48 m 613 -70 l 613 -19 q 504 25 546 -19 q 463 135 463 69 q 507 251 463 204 q 619 298 552 298 q 727 251 683 298 q 771 135 771 204 q 728 7 771 63 q 613 -70 685 -48 "},"Â":{"x_min":72,"x_max":733,"ha":805,"o":"m 419 464 l 419 220 l 342 220 l 342 0 l 72 0 l 72 588 q 163 853 72 758 q 420 948 254 948 q 656 862 580 948 q 733 597 733 776 l 733 0 l 463 0 l 463 579 q 450 654 463 633 q 405 676 437 676 q 342 579 342 676 l 342 464 l 419 464 m 400 1202 l 600 1001 l 441 1001 l 400 1041 l 361 1001 l 205 1001 l 400 1202 "},"Í":{"x_min":91,"x_max":483.296875,"ha":451,"o":"m 361 925 l 361 0 l 91 0 l 91 925 l 361 925 m 483 1186 l 297 1002 l 131 1002 l 297 1186 l 483 1186 "},"´":{"x_min":236.59375,"x_max":534.34375,"ha":681,"o":"m 376 901 l 534 901 l 376 744 l 236 744 l 376 901 "},"ì":{"x_min":2.875,"x_max":321,"ha":395,"o":"m 321 676 l 321 0 l 72 0 l 72 676 l 321 676 m 160 901 l 301 744 l 160 744 l 2 901 l 160 901 "},"±":{"x_min":169,"x_max":848,"ha":1018,"o":"m 412 474 l 169 474 l 169 665 l 412 665 l 412 925 l 605 925 l 605 665 l 848 665 l 848 474 l 605 474 l 605 251 l 412 251 l 412 474 m 169 183 l 848 183 l 848 0 l 169 0 l 169 183 "},"Ú":{"x_min":72,"x_max":728,"ha":801,"o":"m 728 925 l 728 325 q 635 71 728 166 q 388 -23 542 -23 q 153 69 234 -23 q 72 334 72 161 l 72 925 l 342 925 l 342 334 q 401 250 342 250 q 458 334 458 250 l 458 925 l 728 925 m 657 1186 l 471 1002 l 306 1002 l 471 1186 l 657 1186 "},"|":{"x_min":218,"x_max":463,"ha":681,"o":"m 218 925 l 463 925 l 463 -231 l 218 -231 l 218 925 "},"§":{"x_min":40.703125,"x_max":659,"ha":699,"o":"m 40 -56 l 175 90 q 271 11 239 31 q 336 -8 304 -8 q 377 3 359 -8 q 395 30 395 15 q 333 83 395 57 q 110 214 169 154 q 52 371 52 274 q 165 567 52 495 q 79 723 79 638 q 158 883 79 819 q 356 948 237 948 q 631 829 511 948 l 513 692 q 373 758 437 758 q 325 720 325 758 q 366 680 325 696 l 401 665 q 600 546 542 610 q 659 386 659 483 q 559 192 659 268 q 641 27 641 122 q 558 -141 641 -75 q 349 -208 476 -208 q 40 -56 173 -208 m 357 434 q 320 419 335 434 q 306 383 306 404 q 320 347 306 362 q 357 332 335 332 q 393 347 378 332 q 408 383 408 362 q 393 419 408 404 q 357 434 378 434 "},"Ý":{"x_min":-54.53125,"x_max":730.546875,"ha":685,"o":"m 730 925 l 474 513 l 474 0 l 204 0 l 204 513 l -54 925 l 219 925 l 336 734 l 462 925 l 730 925 m 599 1186 l 414 1002 l 248 1002 l 414 1186 l 599 1186 "},"b":{"x_min":58,"x_max":751,"ha":788,"o":"m 307 925 l 307 371 q 401 236 307 236 q 470 264 442 236 q 498 332 498 292 q 471 401 498 373 q 406 430 445 430 q 344 405 379 430 l 344 684 q 410 689 388 689 q 650 585 550 689 q 751 337 751 482 q 649 87 751 189 q 399 -14 547 -14 q 254 19 325 -14 q 137 108 183 52 q 58 361 58 206 l 58 925 l 307 925 "},"q":{"x_min":36,"x_max":729,"ha":787,"o":"m 480 -250 l 480 304 q 384 439 480 439 q 316 411 344 439 q 288 343 288 383 q 315 274 288 303 q 381 245 343 245 q 442 270 411 245 l 442 -9 q 376 -14 398 -14 q 137 90 238 -14 q 36 338 36 194 q 137 588 36 486 q 387 690 239 690 q 532 656 461 690 q 649 567 603 623 q 729 314 729 469 l 729 -250 l 480 -250 "},"Ö":{"x_min":37,"x_max":990,"ha":1026,"o":"m 521 948 q 852 805 714 948 q 990 462 990 662 q 851 118 990 260 q 513 -23 712 -23 q 176 119 316 -23 q 37 462 37 261 q 177 807 37 666 q 521 948 318 948 m 513 676 q 371 613 430 676 q 313 463 313 551 q 371 312 313 374 q 513 250 430 250 q 655 312 597 250 q 714 463 714 374 q 655 613 714 551 q 513 676 597 676 m 357 1226 q 442 1190 407 1226 q 477 1104 477 1154 q 442 1018 477 1054 q 357 983 407 983 q 272 1018 307 983 q 238 1104 238 1054 q 272 1190 238 1154 q 357 1226 307 1226 m 669 1226 q 754 1190 719 1226 q 789 1104 789 1154 q 754 1018 789 1054 q 669 983 719 983 q 584 1018 619 983 q 550 1104 550 1054 q 584 1190 550 1154 q 669 1226 619 1226 "},"z":{"x_min":9,"x_max":656,"ha":674,"o":"m 625 676 l 421 266 l 656 266 l 656 0 l 16 0 l 219 412 l 9 412 l 9 676 l 625 676 "},"™":{"x_min":3,"x_max":1007,"ha":1047,"o":"m 284 770 l 284 397 l 123 397 l 123 770 l 3 770 l 3 925 l 403 925 l 403 770 l 284 770 m 446 398 l 446 776 q 489 892 446 847 q 601 938 533 938 q 727 865 684 938 q 859 938 776 938 q 968 892 930 938 q 1007 763 1007 847 l 1007 398 l 846 398 l 846 739 q 828 779 846 779 q 808 749 808 779 l 808 742 l 808 398 l 647 398 l 647 739 q 628 779 647 779 q 607 739 607 779 l 607 398 l 446 398 "},"ã":{"x_min":36,"x_max":728,"ha":800,"o":"m 440 253 l 440 -8 q 384 -14 410 -14 q 135 86 235 -14 q 36 338 36 186 q 136 587 36 485 q 381 690 237 690 q 635 594 542 690 q 728 332 728 498 l 728 0 l 479 0 l 479 313 q 453 399 479 367 q 384 431 427 431 q 317 401 345 431 q 288 332 288 372 q 314 263 288 290 q 380 236 340 236 q 440 253 412 236 m 464 896 l 567 896 q 535 783 567 827 q 456 740 504 740 q 402 755 428 740 l 372 774 q 359 780 366 779 q 332 744 338 780 l 233 744 q 261 858 233 817 q 343 899 290 899 q 394 883 370 899 l 421 867 q 438 861 428 861 q 464 896 460 861 "},"æ":{"x_min":36,"x_max":1170,"ha":1198,"o":"m 1166 298 l 780 298 q 771 352 771 330 q 783 417 771 378 l 920 417 q 833 492 905 492 q 754 452 784 492 q 725 349 725 413 q 754 240 725 281 q 831 200 783 200 q 905 240 873 200 l 1047 68 q 830 -14 946 -14 q 715 0 780 -14 l 474 0 l 474 309 q 452 401 474 372 q 384 430 430 430 q 316 400 344 430 q 288 330 288 371 q 315 262 288 290 q 380 235 341 235 q 436 253 405 235 l 436 -10 q 386 -14 400 -14 q 137 87 239 -14 q 36 335 36 188 q 135 583 36 478 q 369 689 234 689 q 598 600 497 689 q 821 689 697 689 q 1068 590 966 689 q 1170 352 1170 492 q 1166 298 1170 334 "},"®":{"x_min":33,"x_max":986,"ha":1019,"o":"m 458 585 l 458 203 l 297 203 l 297 730 l 499 730 q 644 681 589 730 q 700 554 700 633 q 631 420 700 473 l 721 203 l 561 203 l 485 373 l 485 510 l 495 510 q 537 549 537 510 q 483 585 537 585 l 458 585 m 517 948 q 847 804 708 948 q 986 462 986 660 q 846 119 986 261 q 509 -23 706 -23 q 172 119 312 -23 q 33 462 33 261 q 173 807 33 666 q 517 948 314 948 m 515 871 q 227 752 345 871 q 109 463 109 633 q 226 174 109 294 q 509 55 343 55 q 792 174 675 55 q 910 463 910 294 q 793 750 910 629 q 515 871 676 871 "},"É":{"x_min":72,"x_max":676.59375,"ha":656,"o":"m 574 565 l 574 359 l 398 359 q 347 348 362 359 q 333 311 333 337 q 348 273 333 282 q 410 264 363 264 l 592 264 l 592 0 l 380 0 q 151 72 230 0 q 72 283 72 145 l 72 645 q 146 851 72 778 q 357 925 221 925 l 592 925 l 592 659 l 420 659 q 350 613 350 659 q 366 575 350 585 q 426 565 383 565 l 574 565 m 676 1186 l 490 1002 l 325 1002 l 490 1186 l 676 1186 "},"~":{"x_min":125.609375,"x_max":786.234375,"ha":907,"o":"m 241 750 l 125 850 q 337 1053 203 1053 q 487 1008 377 1053 q 582 978 562 978 q 669 1056 629 978 l 786 956 q 693 801 742 847 q 572 756 645 756 q 420 801 528 756 q 327 829 352 829 q 241 750 283 829 "},"³":{"x_min":107.390625,"x_max":400,"ha":508,"o":"m 109 926 l 398 926 l 308 713 q 400 546 400 650 q 341 412 400 467 q 200 357 283 357 q 107 374 153 357 l 107 531 q 167 510 139 510 q 213 530 194 510 q 233 580 233 551 q 129 656 233 656 l 169 766 l 109 766 l 109 926 "},"¡":{"x_min":136,"x_max":452,"ha":588,"o":"m 169 -254 l 169 320 l 414 320 l 414 -254 l 169 -254 m 294 690 q 407 644 363 690 q 452 530 452 599 q 406 415 452 462 q 294 368 360 368 q 182 416 229 368 q 136 530 136 464 q 182 643 136 597 q 294 690 229 690 "},"[":{"x_min":60,"x_max":438.15625,"ha":499,"o":"m 272 758 l 272 -9 l 438 -9 l 438 -176 l 60 -176 l 60 925 l 438 925 l 438 758 l 272 758 "},"L":{"x_min":72,"x_max":456.3125,"ha":456,"o":"m 72 924 l 342 924 l 342 375 q 362 289 342 310 q 442 268 382 268 l 456 268 l 456 0 l 384 0 q 154 87 236 0 q 72 331 72 175 l 72 924 "}," ":{"x_min":0,"x_max":0,"ha":340},"∑":{"x_min":46,"x_max":870,"ha":907,"o":"m 858 1041 l 858 673 l 651 673 l 626 825 l 303 825 l 630 366 l 305 -131 l 638 -131 l 652 28 l 870 28 l 870 -347 l 46 -347 l 46 -98 l 357 365 l 46 791 l 46 1041 l 858 1041 "},"%":{"x_min":86,"x_max":1175,"ha":1261,"o":"m 323 939 q 491 868 421 939 q 561 696 561 797 q 491 524 561 595 q 323 454 422 454 q 155 525 224 454 q 86 696 86 596 q 155 867 86 796 q 323 939 225 939 m 324 803 q 250 771 280 803 q 220 696 220 740 q 250 621 220 652 q 324 590 280 590 q 397 621 367 590 q 428 696 428 652 q 397 771 428 740 q 324 803 367 803 m 848 925 l 482 0 l 401 0 l 769 925 l 848 925 m 937 477 q 1105 405 1035 477 q 1175 233 1175 334 q 1105 62 1175 133 q 937 -9 1035 -9 q 768 62 838 -9 q 699 233 699 133 q 768 405 699 334 q 937 477 838 477 m 937 341 q 863 309 894 341 q 833 234 833 278 q 863 158 833 189 q 937 127 894 127 q 1011 158 980 127 q 1042 234 1042 189 q 1011 309 1042 278 q 937 341 980 341 "},"P":{"x_min":72,"x_max":744,"ha":765,"o":"m 386 319 l 386 562 q 468 625 468 562 q 405 684 468 684 q 342 604 342 684 l 342 0 l 72 0 l 72 575 q 89 722 72 665 q 149 829 107 779 q 269 916 197 884 q 417 948 341 948 q 649 853 555 948 q 744 617 744 758 q 659 396 744 481 q 427 319 582 319 l 386 319 "},"∏":{"x_min":21,"x_max":885,"ha":907,"o":"m 21 1041 l 885 1041 l 885 854 l 788 854 l 788 -160 l 885 -160 l 885 -347 l 500 -347 l 500 -160 l 583 -160 l 583 854 l 323 854 l 323 -160 l 404 -160 l 404 -347 l 21 -347 l 21 -160 l 119 -160 l 119 854 l 21 854 l 21 1041 "},"À":{"x_min":72,"x_max":733,"ha":805,"o":"m 419 464 l 419 220 l 342 220 l 342 0 l 72 0 l 72 588 q 163 853 72 758 q 420 948 254 948 q 656 862 580 948 q 733 597 733 776 l 733 0 l 463 0 l 463 579 q 450 654 463 633 q 405 676 437 676 q 342 579 342 676 l 342 464 l 419 464 m 172 1187 l 357 1187 l 523 1002 l 357 1002 l 172 1187 "},"_":{"x_min":0,"x_max":681,"ha":681,"o":"m 0 -71 l 681 -71 l 681 -216 l 0 -216 l 0 -71 "},"ñ":{"x_min":72,"x_max":663,"ha":735,"o":"m 663 0 l 414 0 l 414 381 q 367 440 414 440 q 321 381 321 440 l 321 0 l 72 0 l 72 376 q 157 599 72 509 q 367 690 243 690 q 595 585 510 690 q 663 356 663 503 l 663 0 m 432 896 l 535 896 q 503 783 535 827 q 423 740 472 740 q 370 755 396 740 l 340 774 q 326 780 334 779 q 300 744 306 780 l 201 744 q 229 858 201 817 q 311 899 258 899 q 362 883 338 899 l 388 867 q 405 861 396 861 q 432 896 428 861 "},"+":{"x_min":169,"x_max":848,"ha":1018,"o":"m 412 377 l 169 377 l 169 568 l 412 568 l 412 828 l 605 828 l 605 568 l 848 568 l 848 377 l 605 377 l 605 117 l 412 117 l 412 377 "},"‚":{"x_min":100,"x_max":408,"ha":507,"o":"m 250 -70 l 250 -19 q 141 25 183 -19 q 100 135 100 69 q 144 251 100 204 q 256 298 189 298 q 364 251 320 298 q 408 135 408 204 q 365 7 408 63 q 250 -70 322 -48 "},"½":{"x_min":176,"x_max":1118,"ha":1179,"o":"m 330 925 l 330 370 l 176 370 l 176 925 l 330 925 m 827 925 l 460 0 l 351 0 l 721 925 l 827 925 m 1118 161 l 1118 0 l 767 0 l 946 344 q 954 368 954 358 q 916 405 954 405 q 890 393 901 405 q 880 367 880 382 q 894 336 880 350 l 824 210 q 734 373 734 267 q 789 511 734 454 q 923 569 844 569 q 1055 511 998 569 q 1112 376 1112 453 q 1094 293 1112 328 l 1027 161 l 1118 161 "},"Æ":{"x_min":72,"x_max":976.203125,"ha":1040,"o":"m 958 567 l 958 360 l 782 360 q 717 314 717 360 q 791 266 717 266 l 976 266 l 976 0 l 455 0 l 455 587 q 443 655 455 635 q 401 676 431 676 q 342 600 342 676 l 342 465 l 413 465 l 413 222 l 342 222 l 342 0 l 72 0 l 72 587 q 142 823 72 735 q 258 914 188 880 q 402 948 329 948 q 584 889 500 948 q 736 925 639 925 l 976 925 l 976 662 l 804 662 q 734 615 734 662 q 806 567 734 567 l 958 567 "},"Ë":{"x_min":72,"x_max":658,"ha":656,"o":"m 574 565 l 574 359 l 398 359 q 347 348 362 359 q 333 311 333 337 q 348 273 333 282 q 410 264 363 264 l 592 264 l 592 0 l 380 0 q 151 72 230 0 q 72 283 72 145 l 72 645 q 146 851 72 778 q 357 925 221 925 l 592 925 l 592 659 l 419 659 q 350 613 350 659 q 366 575 350 585 q 425 565 383 565 l 574 565 m 225 1226 q 310 1190 275 1226 q 345 1104 345 1154 q 310 1018 345 1054 q 225 983 275 983 q 140 1018 175 983 q 106 1104 106 1054 q 140 1190 106 1154 q 225 1226 175 1226 m 538 1226 q 623 1190 588 1226 q 658 1104 658 1154 q 623 1018 658 1054 q 538 983 588 983 q 453 1018 488 983 q 419 1104 419 1054 q 453 1190 419 1154 q 538 1226 488 1226 "},"'":{"x_min":51.84375,"x_max":288.4375,"ha":340,"o":"m 237 554 l 103 554 l 51 925 l 288 925 l 237 554 "},"Š":{"x_min":45.125,"x_max":551.515625,"ha":563,"o":"m 517 929 l 517 665 q 472 676 488 676 q 419 652 441 676 q 398 597 398 629 q 421 526 398 569 l 442 490 q 498 298 498 391 q 403 70 498 164 q 174 -23 309 -23 q 45 7 108 -23 l 45 275 q 113 250 83 250 q 172 270 148 250 q 196 322 196 291 q 158 411 196 342 q 98 628 98 519 q 189 853 98 759 q 407 948 280 948 q 517 929 463 948 m 357 1000 l 156 1202 l 315 1202 l 357 1162 l 396 1202 l 551 1202 l 357 1000 "},"ª":{"x_min":31,"x_max":475,"ha":519,"o":"m 277 687 l 277 527 q 248 525 260 525 q 93 585 156 525 q 31 736 31 646 q 94 886 31 825 q 247 948 157 948 q 405 889 347 948 q 464 732 464 831 l 464 532 l 305 532 l 305 722 q 249 789 305 789 q 209 772 226 789 q 192 732 192 755 q 207 694 192 710 q 244 679 222 679 q 277 687 262 679 m 475 478 l 475 391 l 61 391 l 61 478 l 475 478 "},"Œ":{"x_min":37,"x_max":1226,"ha":1289,"o":"m 1207 567 l 1207 362 l 1030 362 q 963 316 963 362 q 1032 268 963 268 l 1226 268 l 1226 0 l 997 0 q 882 15 927 0 q 788 71 836 31 q 513 -23 656 -23 q 155 147 298 -23 q 37 463 37 288 q 178 805 37 663 q 517 948 319 948 q 788 857 668 948 q 874 911 836 897 q 969 925 911 925 l 1226 925 l 1226 659 l 1046 659 q 983 613 983 659 q 1050 567 983 567 l 1207 567 m 517 676 q 372 613 432 676 q 313 463 313 551 q 372 312 313 375 q 517 250 432 250 q 661 312 601 250 q 722 463 722 375 q 662 613 722 551 q 517 676 602 676 "},"˛":{"x_min":256,"x_max":477.421875,"ha":681,"o":"m 477 -255 q 415 -263 444 -263 q 303 -220 350 -263 q 256 -119 256 -178 q 334 0 256 -53 l 474 0 q 399 -88 399 -52 q 413 -120 399 -107 q 448 -134 427 -134 q 477 -127 458 -134 l 477 -255 "},"ð":{"x_min":32,"x_max":729,"ha":761,"o":"m 247 925 l 426 925 l 608 656 q 705 488 682 547 q 729 350 729 428 q 629 91 729 197 q 386 -14 530 -14 q 132 87 233 -14 q 32 341 32 188 q 118 571 32 476 q 343 687 204 667 l 247 925 m 380 439 q 312 409 340 439 q 284 337 284 379 q 312 265 284 295 q 380 236 340 236 q 448 265 420 236 q 476 337 476 295 q 448 409 476 379 q 380 439 420 439 "},"T":{"x_min":9,"x_max":692,"ha":701,"o":"m 486 660 l 486 0 l 216 0 l 216 660 l 9 660 l 9 926 l 692 926 l 692 660 l 486 660 "},"š":{"x_min":9,"x_max":556.453125,"ha":497,"o":"m 488 667 l 488 400 q 415 379 435 400 q 390 300 396 359 q 241 23 373 104 q 43 -18 171 -18 l 9 -18 l 9 250 l 20 250 q 108 275 80 250 q 136 365 136 301 q 149 511 136 469 q 206 594 163 553 q 411 667 280 667 l 488 667 m 370 741 l 194 923 l 336 923 l 370 889 l 400 923 l 556 923 l 370 741 "},"Þ":{"x_min":72,"x_max":744,"ha":765,"o":"m 72 925 l 342 925 l 342 810 q 418 819 383 819 q 650 724 556 819 q 744 488 744 629 q 659 267 744 352 q 427 190 582 190 l 386 190 l 386 433 q 468 496 468 433 q 405 555 468 555 q 342 474 342 555 l 342 0 l 72 0 l 72 925 "},"j":{"x_min":-91.203125,"x_max":411,"ha":484,"o":"m 162 675 l 411 675 l 411 104 q 327 -179 411 -74 q 36 -314 222 -314 q -91 -289 -20 -314 l -91 -50 q 14 -80 -28 -80 q 162 141 162 -80 l 162 675 m 279 977 q 367 940 330 977 q 404 854 404 904 q 369 767 404 801 q 279 734 334 734 q 189 767 224 734 q 155 854 155 801 q 191 940 155 904 q 279 977 228 977 "},"1":{"x_min":259,"x_max":516,"ha":774,"o":"m 516 925 l 516 0 l 259 0 l 259 925 l 516 925 "},"›":{"x_min":54.5,"x_max":275.8125,"ha":330,"o":"m 182 561 l 275 336 l 182 99 l 54 99 l 149 336 l 54 561 l 182 561 "},"ı":{"x_min":72,"x_max":321,"ha":394,"o":"m 321 676 l 321 0 l 72 0 l 72 676 l 321 676 "},"ä":{"x_min":36,"x_max":728,"ha":800,"o":"m 440 253 l 440 -8 q 384 -14 410 -14 q 135 86 235 -14 q 36 338 36 186 q 136 587 36 485 q 381 690 237 690 q 635 594 542 690 q 728 332 728 498 l 728 0 l 479 0 l 479 313 q 453 399 479 367 q 384 431 427 431 q 317 401 345 431 q 288 332 288 372 q 314 263 288 290 q 380 236 340 236 q 440 253 412 236 m 233 975 q 324 941 287 975 q 361 857 361 907 q 322 769 361 807 q 232 732 283 732 q 145 769 182 732 q 109 857 109 807 q 145 940 109 905 q 233 975 182 975 m 565 974 q 656 940 619 974 q 693 856 693 906 q 654 768 693 806 q 564 731 615 731 q 477 768 514 731 q 441 856 441 806 q 477 939 441 904 q 565 974 514 974 "},"<":{"x_min":45,"x_max":635,"ha":681,"o":"m 635 900 l 635 654 l 301 468 l 635 281 l 635 37 l 45 366 l 45 572 l 635 900 "},"£":{"x_min":69.53125,"x_max":703,"ha":773,"o":"m 658 260 l 658 0 l 69 0 l 150 228 l 167 272 q 194 382 188 332 l 134 382 l 134 509 l 173 509 q 141 653 141 581 q 223 858 141 772 q 421 944 306 944 q 620 862 537 944 q 703 668 703 781 l 703 638 l 481 638 l 481 645 l 481 657 q 436 702 481 702 q 398 682 414 702 q 383 636 383 663 q 400 568 383 611 q 423 509 414 534 l 563 509 l 563 382 l 426 382 q 402 260 426 339 l 658 260 "},"¹":{"x_min":176,"x_max":330,"ha":507,"o":"m 330 925 l 330 370 l 176 370 l 176 925 l 330 925 "},"t":{"x_min":45,"x_max":410.3125,"ha":456,"o":"m 294 925 l 294 667 l 405 667 l 405 399 l 294 399 q 318 287 294 318 q 410 257 343 257 l 410 -10 q 381 -10 391 -10 q 222 29 297 -10 q 102 138 147 69 q 45 370 45 225 l 45 925 l 294 925 "},"¬":{"x_min":45.09375,"x_max":635,"ha":681,"o":"m 398 0 l 398 194 l 45 194 l 45 411 l 635 411 l 635 0 l 398 0 "},"ù":{"x_min":72,"x_max":663,"ha":735,"o":"m 72 666 l 321 666 l 321 284 q 367 227 321 227 q 414 284 414 227 l 414 666 l 663 666 l 663 289 q 577 67 663 157 q 367 -23 491 -23 q 139 82 225 -23 q 72 309 72 164 l 72 666 m 331 900 l 471 744 l 331 744 l 173 900 l 331 900 "},"W":{"x_min":72,"x_max":1032,"ha":1104,"o":"m 1032 925 l 1032 258 q 958 55 1032 134 q 767 -23 884 -23 q 552 107 627 -23 q 454 7 506 37 q 324 -23 401 -23 q 137 55 202 -23 q 72 281 72 134 l 72 925 l 342 925 l 342 323 q 348 264 342 278 q 377 250 355 250 q 417 318 417 250 l 417 925 l 687 925 l 687 323 q 694 264 687 279 q 722 250 701 250 q 762 323 762 250 l 762 925 l 1032 925 "},"ï":{"x_min":-61,"x_max":456,"ha":395,"o":"m 321 676 l 321 0 l 72 0 l 72 676 l 321 676 m 50 961 q 133 930 100 961 q 166 855 166 900 q 131 775 166 809 q 50 742 96 742 q -27 775 5 742 q -61 855 -61 809 q -28 929 -61 897 q 50 961 4 961 m 340 960 q 423 929 390 960 q 456 854 456 899 q 421 774 456 808 q 340 741 386 741 q 262 774 295 741 q 229 854 229 808 q 262 928 229 896 q 340 960 295 960 "},">":{"x_min":45,"x_max":635,"ha":681,"o":"m 45 37 l 45 283 l 378 469 l 46 656 l 46 900 l 635 572 l 635 365 l 45 37 "},"v":{"x_min":-45.1875,"x_max":570.234375,"ha":524,"o":"m 570 676 l 260 -26 l -45 676 l 192 676 l 262 493 l 339 676 l 570 676 "},"û":{"x_min":72,"x_max":663,"ha":735,"o":"m 72 666 l 321 666 l 321 284 q 367 227 321 227 q 414 284 414 227 l 414 666 l 663 666 l 663 289 q 577 67 663 157 q 367 -23 491 -23 q 139 82 225 -23 q 72 309 72 164 l 72 666 m 363 922 l 548 741 l 392 741 l 363 774 l 329 741 l 187 741 l 363 922 "},"Ò":{"x_min":37,"x_max":990,"ha":1026,"o":"m 521 948 q 852 805 714 948 q 990 462 990 662 q 851 118 990 260 q 513 -23 712 -23 q 176 119 316 -23 q 37 462 37 261 q 177 807 37 666 q 521 948 318 948 m 513 676 q 371 613 430 676 q 313 463 313 551 q 371 312 313 374 q 513 250 430 250 q 655 312 597 250 q 714 463 714 374 q 655 613 714 551 q 513 676 597 676 m 282 1187 l 468 1187 l 634 1003 l 468 1003 l 282 1187 "},"&":{"x_min":159,"x_max":878.765625,"ha":1038,"o":"m 619 397 l 787 397 q 790 352 790 365 q 751 197 790 270 l 878 0 l 642 0 l 615 32 q 453 -23 537 -23 q 245 63 331 -23 q 159 272 159 149 q 277 510 159 411 q 213 680 213 593 q 289 869 213 790 q 472 948 365 948 q 654 872 578 948 q 731 692 731 796 q 731 656 731 677 l 522 656 q 478 726 522 726 q 438 687 438 726 q 449 656 438 673 l 619 397 m 403 334 q 371 277 371 310 q 390 224 371 246 q 438 203 410 203 q 484 221 460 203 l 403 334 "},"˝":{"x_min":150.203125,"x_max":611.4375,"ha":681,"o":"m 272 901 l 412 901 l 272 744 l 150 744 l 272 901 m 471 901 l 611 901 l 471 744 l 349 744 l 471 901 "},"Ð":{"x_min":0,"x_max":959,"ha":996,"o":"m 361 659 l 361 553 l 505 553 l 505 368 l 361 368 l 361 0 l 91 0 l 91 368 l 0 368 l 0 553 l 91 553 l 91 925 l 441 925 q 803 818 673 925 q 959 470 959 690 q 826 128 959 261 q 484 -4 694 -4 q 404 -4 460 -4 l 404 269 l 447 269 q 683 470 683 269 q 451 659 683 659 l 361 659 "},"I":{"x_min":91,"x_max":361,"ha":451,"o":"m 361 925 l 361 0 l 91 0 l 91 925 l 361 925 "},"ˉ":{"x_min":173,"x_max":508,"ha":681,"o":"m 508 880 l 508 774 l 173 774 l 173 880 l 508 880 "},"G":{"x_min":36,"x_max":816,"ha":835,"o":"m 475 519 l 732 519 q 816 297 816 413 q 718 69 816 161 q 478 -23 621 -23 q 165 119 294 -23 q 36 468 36 262 q 167 811 36 674 q 494 948 298 948 q 643 920 561 948 l 643 645 q 528 676 580 676 q 372 615 432 676 q 312 458 312 555 q 368 302 312 360 q 519 245 424 245 q 580 281 580 245 q 540 309 580 309 l 475 309 l 475 519 "},"`":{"x_min":146.21875,"x_max":443.953125,"ha":681,"o":"m 303 901 l 443 744 l 303 744 l 146 901 l 303 901 "},"r":{"x_min":72,"x_max":435.984375,"ha":437,"o":"m 435 682 l 435 411 q 388 426 410 426 q 321 320 321 426 l 321 0 l 72 0 l 72 369 q 150 602 72 515 q 360 690 229 690 q 435 682 389 690 "},"¿":{"x_min":64,"x_max":659,"ha":723,"o":"m 243 331 l 490 331 l 490 288 q 471 163 490 203 q 403 100 453 122 l 358 80 q 307 15 307 57 q 323 -26 307 -9 q 364 -43 340 -43 q 430 49 430 -43 l 659 49 q 603 -152 659 -74 q 496 -244 561 -210 q 359 -278 430 -278 q 149 -193 234 -278 q 64 15 64 -108 q 185 232 64 169 q 234 267 225 252 q 243 331 243 282 m 361 690 q 474 644 430 690 q 519 530 519 599 q 473 415 519 462 q 361 368 427 368 q 249 416 296 368 q 203 530 203 464 q 249 643 203 597 q 361 690 296 690 "},"ý":{"x_min":64,"x_max":658,"ha":730,"o":"m 158 -295 l 158 -75 q 246 -97 209 -97 q 403 41 367 -97 q 276 2 338 2 q 123 72 183 2 q 64 250 64 142 l 64 675 l 313 675 l 313 312 q 362 252 313 252 q 409 318 409 252 l 409 676 l 658 676 l 658 72 q 564 -199 658 -95 q 296 -323 453 -323 q 158 -295 226 -323 m 401 901 l 559 901 l 401 744 l 261 744 l 401 901 "},"x":{"x_min":64,"x_max":656,"ha":719,"o":"m 407 676 l 656 676 l 656 527 q 637 424 656 463 q 574 356 619 385 q 638 287 620 324 q 656 189 656 250 l 656 0 l 407 0 l 407 204 q 359 274 407 274 q 313 213 313 274 l 313 0 l 64 0 l 64 180 q 86 282 64 242 q 163 356 108 321 q 86 433 108 392 q 64 537 64 474 l 64 676 l 313 676 l 313 505 q 326 461 313 478 q 360 445 339 445 q 407 505 407 445 l 407 676 "},"è":{"x_min":36,"x_max":726,"ha":754,"o":"m 723 296 l 346 296 q 338 349 338 325 q 349 416 338 383 l 476 416 q 393 491 462 491 q 317 450 346 491 q 288 347 288 410 q 316 241 288 282 q 390 201 344 201 q 462 238 427 201 l 603 65 q 383 -14 504 -14 q 136 86 236 -14 q 36 337 36 187 q 137 587 36 485 q 385 690 238 690 q 628 589 530 690 q 726 343 726 489 q 723 296 726 328 m 340 900 l 480 743 l 340 743 l 182 900 l 340 900 "},"º":{"x_min":29,"x_max":466,"ha":495,"o":"m 247 948 q 402 886 338 948 q 466 737 466 825 q 402 587 466 649 q 247 526 338 526 q 93 587 157 526 q 29 737 29 649 q 92 886 29 825 q 247 948 156 948 m 247 795 q 206 778 223 795 q 190 737 190 761 q 206 695 190 712 q 247 679 223 679 q 288 695 271 679 q 305 737 305 712 q 288 778 305 761 q 247 795 271 795 m 464 478 l 464 391 l 49 391 l 49 478 l 464 478 "},"Ø":{"x_min":37,"x_max":990,"ha":1027,"o":"m 863 793 q 990 463 990 650 q 850 119 990 262 q 513 -23 710 -23 q 214 84 347 -23 l 137 0 l 95 40 l 172 123 q 37 462 37 266 q 176 805 37 663 q 513 948 316 948 q 823 832 689 948 l 899 914 l 939 876 l 863 793 m 675 587 l 400 287 q 513 250 454 250 q 655 312 596 250 q 714 463 714 374 q 675 587 714 527 m 358 327 l 637 630 q 513 676 578 676 q 371 613 430 676 q 313 463 313 551 q 358 327 313 389 "},"∞":{"x_min":23,"x_max":884,"ha":907,"o":"m 457 366 q 237 249 360 249 q 83 312 143 249 q 23 473 23 375 q 84 631 23 569 q 241 694 146 694 q 450 576 358 694 q 666 694 541 694 q 823 631 762 694 q 884 471 884 569 q 822 310 884 372 q 663 248 761 248 q 457 366 546 248 m 531 472 q 642 392 586 392 q 699 414 676 392 q 722 471 722 437 q 698 527 722 504 q 642 550 675 550 q 531 472 586 550 m 375 471 q 264 550 320 550 q 207 527 230 550 q 185 471 185 504 q 208 415 185 438 q 264 393 231 393 q 375 471 320 393 "},"÷":{"x_min":169,"x_max":848,"ha":1018,"o":"m 505 321 q 592 285 556 321 q 629 197 629 249 q 593 111 629 147 q 508 76 558 76 q 422 110 456 76 q 389 197 389 144 q 423 284 389 247 q 505 321 458 321 m 505 868 q 593 832 557 868 q 629 744 629 796 q 593 658 629 694 q 508 623 558 623 q 422 657 456 623 q 389 744 389 691 q 423 831 389 794 q 505 868 457 868 m 169 570 l 848 570 l 848 373 l 169 373 l 169 570 "},"h":{"x_min":72,"x_max":655,"ha":727,"o":"m 321 925 l 321 642 q 446 689 383 689 q 598 618 542 689 q 655 428 655 548 l 655 0 l 406 0 l 406 356 q 397 415 406 400 q 362 430 388 430 q 321 367 321 430 l 321 0 l 72 0 l 72 925 l 321 925 "},".":{"x_min":100,"x_max":416,"ha":516,"o":"m 257 304 q 369 255 322 304 q 416 141 416 207 q 369 28 416 74 q 257 -18 322 -18 q 144 27 188 -18 q 100 141 100 72 q 145 256 100 209 q 257 304 191 304 "},";":{"x_min":100,"x_max":416,"ha":516,"o":"m 254 -70 l 254 -19 q 145 25 187 -19 q 104 135 104 69 q 148 251 104 204 q 260 298 193 298 q 368 251 324 298 q 412 135 412 204 q 369 7 412 63 q 254 -70 326 -48 m 257 690 q 369 641 322 690 q 416 527 416 593 q 369 414 416 460 q 257 368 322 368 q 144 413 188 368 q 100 527 100 458 q 145 642 100 595 q 257 690 191 690 "},"f":{"x_min":72,"x_max":432,"ha":469,"o":"m 432 526 l 432 260 l 321 260 l 321 0 l 72 0 l 72 574 q 104 739 72 671 q 230 882 145 827 q 405 937 314 937 l 432 937 l 432 671 q 419 671 423 671 q 346 639 372 671 q 321 548 321 607 l 321 526 l 432 526 "},"“":{"x_min":100,"x_max":771,"ha":870,"o":"m 621 944 l 621 893 q 729 848 687 893 q 771 738 771 804 q 726 622 771 669 q 615 576 681 576 q 506 622 550 576 q 463 738 463 669 q 505 866 463 810 q 621 944 548 922 m 258 943 l 258 893 q 366 848 324 893 q 408 738 408 804 q 363 622 408 669 q 252 576 318 576 q 143 622 187 576 q 100 738 100 669 q 142 866 100 810 q 258 943 185 922 "},"A":{"x_min":72,"x_max":733,"ha":805,"o":"m 419 464 l 419 220 l 342 220 l 342 0 l 72 0 l 72 588 q 163 853 72 758 q 420 948 254 948 q 656 862 580 948 q 733 597 733 776 l 733 0 l 463 0 l 463 579 q 450 654 463 633 q 405 676 437 676 q 342 579 342 676 l 342 464 l 419 464 "},"6":{"x_min":41,"x_max":734,"ha":775,"o":"m 242 952 l 481 866 l 304 360 q 296 322 296 339 q 322 259 296 285 q 386 233 349 233 q 448 259 422 233 q 474 324 474 286 q 448 388 474 362 q 386 415 422 415 q 360 412 377 415 l 468 677 q 671 534 609 615 q 734 333 734 453 q 633 80 734 183 q 386 -23 532 -23 q 144 80 247 -23 q 41 322 41 183 q 89 522 41 385 l 242 952 "},"‘":{"x_min":100,"x_max":408,"ha":507,"o":"m 258 943 l 258 893 q 366 848 324 893 q 408 738 408 804 q 363 622 408 669 q 252 576 318 576 q 143 622 187 576 q 100 738 100 669 q 142 866 100 810 q 258 943 185 922 "},"π":{"x_min":27,"x_max":850,"ha":878,"o":"m 126 0 l 126 493 l 27 493 l 27 666 l 850 666 l 850 493 l 752 493 l 752 0 l 537 0 l 537 493 l 341 493 l 341 0 l 126 0 "},"O":{"x_min":37,"x_max":990,"ha":1026,"o":"m 521 948 q 852 805 714 948 q 990 462 990 662 q 851 118 990 260 q 513 -23 712 -23 q 176 119 316 -23 q 37 462 37 261 q 177 807 37 666 q 521 948 318 948 m 513 676 q 371 613 430 676 q 313 463 313 551 q 371 312 313 374 q 513 250 430 250 q 655 312 597 250 q 714 463 714 374 q 655 613 714 551 q 513 676 597 676 "},"n":{"x_min":72,"x_max":663,"ha":735,"o":"m 663 0 l 414 0 l 414 381 q 367 440 414 440 q 321 381 321 440 l 321 0 l 72 0 l 72 376 q 157 599 72 509 q 367 690 243 690 q 595 585 510 690 q 663 356 663 503 l 663 0 "},"3":{"x_min":142.984375,"x_max":631,"ha":774,"o":"m 146 925 l 627 925 l 478 569 q 594 448 558 514 q 631 294 631 383 q 534 68 631 160 q 297 -23 438 -23 q 142 6 219 -23 l 142 268 q 243 232 200 232 q 321 265 289 232 q 353 349 353 299 q 305 441 353 407 q 179 475 258 475 l 246 658 l 146 658 l 146 925 "},"9":{"x_min":41,"x_max":733,"ha":774,"o":"m 532 -27 l 294 58 l 470 564 q 478 603 478 585 q 451 666 478 640 q 388 693 424 693 q 326 666 352 693 q 301 601 301 639 q 326 536 301 562 q 389 510 352 510 q 414 512 397 510 l 306 247 q 103 390 165 310 q 41 592 41 471 q 141 844 41 741 q 388 948 242 948 q 629 844 526 948 q 733 602 733 741 q 684 402 733 538 l 532 -27 "},"l":{"x_min":72,"x_max":321,"ha":394,"o":"m 321 925 l 321 0 l 72 0 l 72 925 l 321 925 "},"¤":{"x_min":38.984375,"x_max":956.6875,"ha":995,"o":"m 38 148 l 182 294 q 140 471 140 378 q 187 649 140 556 l 40 798 l 177 937 l 327 784 q 497 828 416 828 q 666 786 580 828 l 814 935 l 950 797 l 806 651 q 857 470 857 561 q 813 295 857 382 l 956 149 l 821 9 l 679 154 q 495 104 592 104 q 317 154 410 104 l 174 11 l 38 148 m 499 600 q 409 562 446 600 q 373 471 373 524 q 409 378 373 416 q 499 340 446 340 q 589 378 552 340 q 626 471 626 416 q 588 562 626 524 q 499 600 551 600 "},"":{"x_min":72,"x_max":697,"ha":761,"o":"m 404 526 l 404 260 l 321 260 l 321 0 l 72 0 l 72 574 q 117 765 72 687 q 239 885 157 833 q 387 938 320 938 q 409 936 394 938 l 409 671 q 340 632 359 659 q 321 549 321 606 l 321 526 l 404 526 m 688 676 l 688 0 l 439 0 l 439 676 l 688 676 m 576 948 q 661 913 625 948 q 697 832 697 878 q 661 748 697 782 q 572 715 625 715 q 489 748 522 715 q 457 835 457 782 q 491 915 457 882 q 576 948 526 948 "},"∂":{"x_min":17,"x_max":661,"ha":680,"o":"m 68 732 l 94 919 q 517 751 374 889 q 661 371 661 612 q 572 90 661 192 q 331 -12 484 -12 q 105 78 193 -12 q 17 309 17 168 q 95 514 17 431 q 290 598 173 598 q 443 549 382 598 q 324 674 394 636 q 68 732 231 732 m 338 426 q 254 388 289 426 q 220 299 220 351 q 254 209 220 246 q 336 172 288 172 q 420 209 386 172 q 454 299 454 246 q 420 389 454 353 q 338 426 387 426 "},"4":{"x_min":53.765625,"x_max":720,"ha":773,"o":"m 720 925 l 720 0 l 465 0 l 465 706 l 352 477 l 408 477 l 408 276 l 53 276 l 322 925 l 720 925 "},"p":{"x_min":58,"x_max":751,"ha":788,"o":"m 307 -250 l 58 -250 l 58 314 q 137 567 58 469 q 254 656 183 623 q 399 690 325 690 q 649 588 547 690 q 751 338 751 486 q 649 90 751 194 q 410 -14 548 -14 q 344 -9 388 -14 l 344 270 q 405 245 374 245 q 471 274 443 245 q 499 343 499 303 q 470 411 499 383 q 402 439 442 439 q 307 304 307 439 l 307 -250 "},"‡":{"x_min":121,"x_max":560,"ha":681,"o":"m 234 453 l 121 453 l 121 694 l 234 694 l 234 925 l 447 925 l 447 694 l 560 694 l 560 453 l 447 453 l 447 305 l 560 305 l 560 64 l 447 64 l 447 -176 l 234 -176 l 234 64 l 121 64 l 121 305 l 234 305 l 234 453 "},"à":{"x_min":36,"x_max":728,"ha":800,"o":"m 440 253 l 440 -8 q 384 -14 410 -14 q 135 86 235 -14 q 36 338 36 186 q 136 587 36 485 q 381 690 237 690 q 635 594 542 690 q 728 332 728 498 l 728 0 l 479 0 l 479 313 q 453 399 479 367 q 384 431 427 431 q 317 401 345 431 q 288 332 288 372 q 314 263 288 290 q 380 236 340 236 q 440 253 412 236 m 363 901 l 503 744 l 363 744 l 206 901 l 363 901 "},"Ü":{"x_min":72,"x_max":728,"ha":801,"o":"m 728 925 l 728 325 q 635 71 728 166 q 388 -23 542 -23 q 153 69 234 -23 q 72 334 72 161 l 72 925 l 342 925 l 342 334 q 401 250 342 250 q 458 334 458 250 l 458 925 l 728 925 m 243 1226 q 328 1190 293 1226 q 363 1104 363 1154 q 328 1018 363 1054 q 243 983 293 983 q 158 1018 193 983 q 124 1104 124 1054 q 158 1190 124 1154 q 243 1226 193 1226 m 556 1226 q 641 1190 606 1226 q 676 1104 676 1154 q 641 1018 676 1054 q 556 983 606 983 q 471 1018 506 983 q 437 1104 437 1054 q 471 1190 437 1154 q 556 1226 506 1226 "},"ó":{"x_min":32,"x_max":729,"ha":760,"o":"m 386 690 q 628 586 527 690 q 729 338 729 483 q 627 89 729 192 q 380 -14 525 -14 q 134 89 236 -14 q 32 338 32 192 q 134 588 32 487 q 386 690 236 690 m 380 439 q 312 410 340 439 q 284 338 284 380 q 312 266 284 295 q 380 236 340 236 q 448 266 420 236 q 476 338 476 295 q 448 410 476 380 q 380 439 420 439 m 416 900 l 574 900 l 416 743 l 276 743 l 416 900 "},"√":{"x_min":0,"x_max":907,"ha":907,"o":"m 907 1147 l 907 954 l 689 954 l 464 0 l 194 0 l 125 337 l 0 337 l 0 530 l 254 530 l 288 398 q 304 198 304 340 l 321 198 q 394 618 341 394 l 521 1147 l 907 1147 "}}}
